<svg width="32" height="32" viewBox="0 0 32 32" fill="none" xmlns="http://www.w3.org/2000/svg">
<path d="M5 26C3.34315 26 2 24.6569 2 23L2 8C2 6.34315 3.34314 5 5 5L26 5C27.6569 5 29 6.34314 29 8L29 23C29 24.6569 27.6569 26 26 26L5 26Z" fill="white"/>
<path d="M27 8L29 8L29 23L27 23L27 8ZM26 7L5 7C4.44771 7 4 7.44772 4 8L4 23C4 23.5523 4.44772 24 5 24L26 24C26.5523 24 27 23.5523 27 23L29 23L28.9961 23.1543C28.9184 24.6883 27.6883 25.9184 26.1543 25.9961L26 26L5 26C3.34315 26 2 24.6569 2 23L2 8C2 6.34315 3.34314 5 5 5L26 5C27.6051 5 28.9158 6.26055 28.9961 7.8457L29 8L27 8C27 7.44771 26.5523 7 26 7Z" fill="#00000E"/>
<path d="M13.8064 8.91909C14.0016 8.03592 14.2557 7.5 14.5339 7.5C14.8376 7.5 15.1123 8.13673 15.3134 9.16728C16.1399 9.35948 16.6364 9.60538 16.6364 9.87363C16.6363 10.1195 16.2177 10.347 15.5108 10.531C15.5969 11.3587 15.6465 12.3486 15.6465 15.3179C15.6465 16.2871 15.6011 19.201 15.5209 20.0052C16.2219 20.1891 16.6364 20.4155 16.6364 20.6602C16.6364 20.9261 16.1476 21.1701 15.3334 21.3617C15.1312 22.4554 14.8476 23.1364 14.5339 23.1364C14.2456 23.1364 13.9821 22.5609 13.7846 21.6176C12.9162 21.7167 11.9481 21.7733 10.8185 21.7733C9.68886 21.7733 8.63585 21.712 7.74324 21.6052C7.54514 22.5556 7.28103 23.1364 6.99096 23.1364C6.67436 23.1364 6.389 22.4436 6.18619 21.3334C5.44216 21.1466 5 20.9131 5 20.6602C5 20.4285 5.37143 20.2127 6.00699 20.0346C5.92504 19.2234 5.87844 16.3396 5.87844 15.3179C5.87844 12.2962 5.92916 11.3369 6.01759 10.5021C5.37616 10.3235 5.00002 10.1071 5 9.87363C5 9.61835 5.45043 9.3831 6.20626 9.19562C6.40789 8.14795 6.68498 7.5 6.99156 7.5C7.27101 7.50001 7.52628 8.04123 7.72202 8.93206C8.61876 8.82358 9.72601 8.76107 10.8185 8.76107C11.9109 8.76107 12.9327 8.81886 13.8064 8.91909Z" fill="#BBFD3B"/>
<path d="M16.6309 20.71C16.574 20.9565 16.0962 21.1817 15.333 21.3613C15.1308 22.4547 14.8477 23.1364 14.5342 23.1367L14.4805 23.1299C14.2131 23.0636 13.9694 22.5019 13.7842 21.6172C12.9158 21.7162 11.9478 21.7734 10.8184 21.7734V20.2734C11.897 20.2734 12.8079 20.2189 13.6143 20.127L14.0049 20.082L14.0283 19.8564C14.0996 19.1412 14.1465 16.3077 14.1465 15.3184C14.1465 12.3543 14.0959 11.4308 14.0186 10.6865L13.9932 10.4502L13.6357 10.4092C12.8252 10.3162 11.8606 10.2607 10.8184 10.2607C9.77643 10.2607 8.73025 10.3208 7.90234 10.4209L7.5293 10.4658L7.50879 10.6602C7.42933 11.4103 7.37891 12.3022 7.37891 15.3184C7.37892 16.3595 7.42616 19.1622 7.49902 19.8838L7.51758 20.0674L7.9209 20.1162C8.74669 20.2149 9.74001 20.2734 10.8184 20.2734V21.7734L9.9873 21.7617C9.17261 21.7395 8.41272 21.6855 7.74316 21.6055C7.54513 22.5554 7.28116 23.1364 6.99121 23.1367L6.93164 23.1279C6.63884 23.0472 6.37657 22.3733 6.18652 21.333C5.44249 21.1461 5 20.9131 5 20.6602C5.00001 20.4285 5.3713 20.2122 6.00684 20.0342C5.9454 19.4253 5.90366 17.6519 5.88672 16.3721L5.87891 15.3184C5.87891 12.2966 5.92914 11.3368 6.01758 10.502C5.37653 10.3234 5.00044 10.1073 5 9.87402C5 9.61875 5.4503 9.38279 6.20605 9.19531C6.40761 8.14819 6.6848 7.50049 6.99121 7.5C7.27062 7.50001 7.52596 8.04109 7.72168 8.93164C8.61838 8.82316 9.72592 8.76075 10.8184 8.76074C11.9108 8.76074 12.9329 8.81872 13.8066 8.91895C14.0018 8.03588 14.2559 7.5 14.5342 7.5C14.8377 7.50034 15.1125 8.13686 15.3135 9.16699C16.14 9.35919 16.6367 9.60577 16.6367 9.87402L16.6318 9.91992C16.5829 10.148 16.1731 10.3589 15.5107 10.5312C15.5968 11.359 15.6465 12.3494 15.6465 15.3184L15.6377 16.3457C15.6212 17.6117 15.5806 19.4015 15.5205 20.0049C16.2215 20.1888 16.6367 20.4155 16.6367 20.6602L16.6309 20.71Z" fill="#00000E"/>
<path d="M25.5 20.25C25.5 19.8358 25.1642 19.5 24.75 19.5H18.75C18.3358 19.5 18 19.8358 18 20.25C18 20.6642 18.3358 21 18.75 21H24.75C25.1642 21 25.5 20.6642 25.5 20.25Z" fill="#00000E"/>
<path d="M25.5 17.25C25.5 16.8358 25.1642 16.5 24.75 16.5H20.25C19.8358 16.5 19.5 16.8358 19.5 17.25C19.5 17.6642 19.8358 18 20.25 18H24.75C25.1642 18 25.5 17.6642 25.5 17.25Z" fill="#00000E"/>
<path d="M25.5 14.25C25.5 13.8358 25.1642 13.5 24.75 13.5H21.25C20.8358 13.5 20.5 13.8358 20.5 14.25C20.5 14.6642 20.8358 15 21.25 15H24.75C25.1642 15 25.5 14.6642 25.5 14.25Z" fill="#00000E"/>
</svg>
