<svg width="24" height="24" viewBox="0 0 24 24" fill="none" xmlns="http://www.w3.org/2000/svg">
<path d="M6.5 19H20.5V8H15V2H6.5V19Z" fill="white"/>
<path d="M6.5 19H20.5V8C20.5 8 18.6027 9.12436 17.5 10C15.9862 11.2021 15.6934 12.5679 14 13.5C11.4284 14.9155 6.5 14 6.5 14V19Z" fill="#BBFD3B"/>
<path d="M15 1C15.5523 1 16 1.44772 16 2V7H20.5C21.0523 7 21.5 7.44772 21.5 8V19C21.5 19.5523 21.0523 20 20.5 20H6.5C5.94772 20 5.5 19.5523 5.5 19V2C5.5 1.44772 5.94772 1 6.5 1H15ZM7.5 18H19.5V9H15C14.4477 9 14 8.55228 14 8V3H7.5V18Z" fill="#00000E"/>
<path d="M14.3243 1.26279C14.7314 0.889637 15.3642 0.917206 15.7374 1.32431L21.2374 7.32431C21.6105 7.73143 21.583 8.36422 21.1759 8.7374C20.7688 9.11055 20.136 9.08298 19.7628 8.67587L14.2628 2.67587C13.8896 2.26875 13.9172 1.63597 14.3243 1.26279Z" fill="#00000E"/>
<path d="M2.5 10C2.5 9.44772 2.94772 9 3.5 9C4.05228 9 4.5 9.44772 4.5 10V21H14C14.5523 21 15 21.4477 15 22C15 22.5523 14.5523 23 14 23H3.5C2.94772 23 2.5 22.5523 2.5 22V10Z" fill="#00000E"/>
<path d="M11.5 9C12.0523 9 12.5 9.44772 12.5 10C12.5 10.5523 12.0523 11 11.5 11H9.5C8.94772 11 8.5 10.5523 8.5 10C8.5 9.44772 8.94772 9 9.5 9H11.5Z" fill="#00000E"/>
<path d="M15.5 13C16.0523 13 16.5 13.4477 16.5 14C16.5 14.5523 16.0523 15 15.5 15H9.5C8.94772 15 8.5 14.5523 8.5 14C8.5 13.4477 8.94772 13 9.5 13H15.5Z" fill="#00000E"/>
</svg>
