<svg width="24" height="24" viewBox="0 0 24 24" fill="none" xmlns="http://www.w3.org/2000/svg">
<path d="M2.5 4C2.5 3.44771 2.94771 3 3.5 3H9.5L12 6H20.5C21.0523 6 21.5 6.4477 21.5 7V20C21.5 20.5523 21.0523 21 20.5 21H3.5C2.94771 21 2.5 20.5523 2.5 20V4Z" fill="white"/>
<path d="M1.5 20V4C1.5 2.89543 2.39543 2 3.5 2H9.5C9.79674 2 10.0786 2.13144 10.2686 2.35938L12.4688 5H20.5C21.6046 5 22.5 5.89542 22.5 7V20C22.5 21.1046 21.6046 22 20.5 22H3.5C2.39544 22 1.5 21.1046 1.5 20ZM3.5 20H20.5V7H12C11.7033 7 11.4214 6.86856 11.2314 6.64062L9.03125 4H3.5V20Z" fill="#00000E"/>
<path d="M2.5 13.9998C2.5 13.4475 2.94771 12.9998 3.5 12.9998C3.5 12.9998 7.48638 11.8016 9.5 12.9998C10.8106 13.7797 10.7214 15.1685 12 15.9998C16.2971 18.7936 20.5 13.9998 20.5 13.9998C20.5 13.9998 21.5 14.4475 21.5 14.9998V19.9998C21.5 20.5521 21.0523 20.9998 20.5 20.9998H3.5C2.94771 20.9998 2.5 20.5521 2.5 19.9998V13.9998Z" fill="#BBFD3B"/>
<path d="M1.5 20V4C1.5 2.89543 2.39543 2 3.5 2H9.5C9.79674 2 10.0786 2.13144 10.2686 2.35938L12.4688 5H20.5C21.6046 5 22.5 5.89542 22.5 7V20C22.5 21.1046 21.6046 22 20.5 22H3.5C2.39544 22 1.5 21.1046 1.5 20ZM3.5 20H20.5V7H12C11.7033 7 11.4214 6.86856 11.2314 6.64062L9.03125 4H3.5V20Z" fill="#00000E"/>
<path d="M15 12.5C15.5523 12.5 16 12.9477 16 13.5C16 14.0523 15.5523 14.5 15 14.5H9C8.44772 14.5 8 14.0523 8 13.5C8 12.9477 8.44772 12.5 9 12.5H15Z" fill="#00000E"/>
<path d="M11 16.5V10.5C11 9.94772 11.4477 9.5 12 9.5C12.5523 9.5 13 9.94772 13 10.5V16.5C13 17.0523 12.5523 17.5 12 17.5C11.4477 17.5 11 17.0523 11 16.5Z" fill="#00000E"/>
</svg>
