<svg width="32" height="32" viewBox="0 0 32 32" fill="none" xmlns="http://www.w3.org/2000/svg">
<path d="M28 16C28 22.6274 22.6274 28 16 28C9.37258 28 4 22.6274 4 16C4 9.37258 9.37258 4 16 4C22.6274 4 28 9.37258 28 16Z" fill="white"/>
<path d="M26 16C26 10.4772 21.5228 6 16 6C10.4772 6 6 10.4772 6 16C6 21.5228 10.4772 26 16 26V28C9.37258 28 4 22.6274 4 16C4 9.37258 9.37258 4 16 4C22.6274 4 28 9.37258 28 16C28 22.6274 22.6274 28 16 28V26C21.5228 26 26 21.5228 26 16Z" fill="#00000E"/>
<path d="M12.1064 11.4951C12.1064 12.4254 11.3522 13.1796 10.4218 13.1796C9.4915 13.1796 8.7373 12.4254 8.7373 11.4951C8.7373 10.5647 9.4915 9.81055 10.4218 9.81055C11.3522 9.81055 12.1064 10.5647 12.1064 11.4951Z" fill="#00000E"/>
<path d="M10.7373 11.4951L10.7304 11.4316C10.7052 11.3084 10.6085 11.2117 10.4853 11.1865L10.4218 11.1797C10.2476 11.1797 10.1064 11.3209 10.1064 11.4951L10.1133 11.5586C10.1427 11.7023 10.2694 11.8105 10.4218 11.8105V13.1796L10.25 13.1708C9.40037 13.0848 8.73732 12.3674 8.7373 11.4951C8.7373 10.5648 9.49152 9.81055 10.4218 9.81055C11.3522 9.81056 12.1064 10.5648 12.1064 11.4951L12.0976 11.667C12.0115 12.5165 11.2941 13.1796 10.4218 13.1796V11.8105C10.5743 11.8105 10.701 11.7023 10.7304 11.5586L10.7373 11.4951Z" fill="#00000E"/>
<path d="M17.5656 18.9205C17.5656 20.7257 16.1021 22.1891 14.2969 22.1891C12.4917 22.1891 11.0283 20.7257 11.0283 18.9205C11.0283 17.1153 12.4917 15.6519 14.2969 15.6519C16.1021 15.6519 17.5656 17.1153 17.5656 18.9205Z" fill="#00000E"/>
<path d="M15.5655 18.9205C15.5655 18.2198 14.9976 17.6519 14.2969 17.6519C13.5963 17.6519 13.0284 18.2199 13.0284 18.9205C13.0284 19.6211 13.5963 20.189 14.2969 20.189V22.1891C12.4917 22.1891 11.0283 20.7257 11.0283 18.9205C11.0284 17.1153 12.4917 15.6519 14.2969 15.6519C16.1022 15.6519 17.5655 17.1153 17.5656 18.9205C17.5656 20.7257 16.1022 22.1891 14.2969 22.1891V20.189C14.9976 20.189 15.5655 19.6211 15.5655 18.9205Z" fill="#00000E"/>
<path d="M16 4C22.6274 4.00007 28 9.37262 28 16C27.9999 22.6273 22.6273 27.9999 16 28C14.5568 28 13.1732 27.7444 11.8916 27.2773C16.4959 25.6 19.7841 21.1844 19.7842 16C19.7842 15.2696 19.7158 14.5548 19.5908 13.8604C20.1777 13.457 20.5635 12.7825 20.5635 12.0166C20.5634 10.781 19.5618 9.7793 18.3262 9.7793C18.2356 9.7793 18.1464 9.7864 18.0586 9.79688C16.6524 7.47294 14.48 5.66458 11.8916 4.72168C13.1732 4.25474 14.557 4.00001 16 4ZM21.8975 19.9326C21.3253 19.9328 20.8613 20.3966 20.8613 20.9688C20.8614 21.5408 21.3254 22.0047 21.8975 22.0049C22.4697 22.0049 22.9335 21.541 22.9336 20.9688C22.9336 20.3965 22.4698 19.9326 21.8975 19.9326Z" fill="#BBFD3B"/>
<path d="M19.7842 16C19.7842 15.2696 19.7158 14.5548 19.5908 13.8604C20.1777 13.457 20.5635 12.7825 20.5635 12.0166C20.5634 10.781 19.5618 9.7793 18.3262 9.7793C18.2356 9.7793 18.1464 9.7864 18.0586 9.79688C16.6524 7.47294 14.48 5.66458 11.8916 4.72168C13.1732 4.25474 14.557 4.00001 16 4C22.6274 4.00007 28 9.37262 28 16C27.9999 22.6273 22.6273 27.9999 16 28C14.5568 28 13.1732 27.7444 11.8916 27.2773C16.4959 25.6 19.7841 21.1844 19.7842 16ZM19.8096 23.168C19.2257 24.145 18.5257 25.0439 17.7295 25.8477C19.3106 25.5719 20.7643 24.9273 21.9971 24.002C21.964 24.003 21.9308 24.0049 21.8975 24.0049H21.8965C21.087 24.0045 20.3538 23.6848 19.8096 23.168ZM21.8975 19.9326C21.3253 19.9328 20.8613 20.3966 20.8613 20.9688C20.8614 21.5408 21.3254 22.0047 21.8975 22.0049C22.4697 22.0049 22.9335 21.541 22.9336 20.9688C22.9336 20.3965 22.4698 19.9326 21.8975 19.9326ZM22.5635 12.0166C22.5635 12.977 22.2412 13.8588 21.7061 14.5664C21.7548 15.0365 21.7842 15.5145 21.7842 16C21.7842 16.6597 21.7347 17.3081 21.6465 17.9434C21.7289 17.9366 21.8123 17.9327 21.8965 17.9326H21.8975C23.4318 17.9326 24.6988 19.0708 24.9033 20.5488C25.5286 19.3276 25.9139 17.9626 25.9873 16.5146L26 16C26 11.0676 22.4283 6.97221 17.7305 6.15234C18.2563 6.68342 18.7409 7.25495 19.1768 7.86426C21.1094 8.25805 22.5633 9.96794 22.5635 12.0166Z" fill="#00000E"/>
</svg>
