<svg width="24" height="24" viewBox="0 0 24 24" fill="none" xmlns="http://www.w3.org/2000/svg">
<path d="M6 14.5V15.75C6 15.75 9.12864 11.4817 12 11.5C14.9289 11.5187 18 16 18 16V8C18 4.68629 15.3137 2 12 2C8.6863 2 6 4.68629 6 8V12V14.5Z" fill="white"/>
<path d="M17 16V8C17 5.23858 14.7614 3 12 3C9.23858 3 7 5.23858 7 8V16C7 16.5523 6.55228 17 6 17C5.44772 17 5 16.5523 5 16V8C5 4.134 8.13402 1 12 1C15.866 1 19 4.134 19 8V16C19 19.866 15.866 23 12 23C11.4477 23 11 22.5523 11 22C11 21.4477 11.4477 21 12 21C14.7614 21 17 18.7614 17 16Z" fill="#00000E"/>
<path d="M8 11.6445C8 12.7054 8.42143 13.7228 9.17157 14.473C9.92172 15.2231 10.9391 15.6445 12 15.6445C13.0609 15.6445 14.0783 15.2231 14.8284 14.473C15.5786 13.7228 16 12.7054 16 11.6445C16 10.5837 15.5786 9.56625 14.8284 8.8161C14.0783 8.06596 13.0609 7.64453 12 7.64453C10.9391 7.64453 9.92172 8.06596 9.17157 8.8161C8.42143 9.56625 8 10.5837 8 11.6445Z" fill="#BBFD3B"/>
<path d="M14.3486 11.6445C14.3486 11.0217 14.1006 10.4248 13.6602 9.98438C13.2197 9.54395 12.6229 9.2959 12 9.2959C11.3771 9.2959 10.7803 9.54395 10.3398 9.98438C9.89942 10.4248 9.65137 11.0217 9.65137 11.6445C9.65137 12.2674 9.89942 12.8643 10.3398 13.3047C10.7803 13.7451 11.3771 13.9932 12 13.9932V15.6445L11.8018 15.6396C10.8789 15.5939 10.0003 15.2296 9.31543 14.6094L9.17188 14.4727C8.46859 13.7694 8.0539 12.8315 8.00488 11.8428L8 11.6445C8 10.6499 8.37069 9.69374 9.03516 8.95996L9.17188 8.81641C9.92202 8.06626 10.9391 7.64453 12 7.64453C13.0609 7.64453 14.078 8.06626 14.8281 8.81641C15.5783 9.56655 16 10.5837 16 11.6445L15.9951 11.8428C15.9461 12.8315 15.5314 13.7694 14.8281 14.4727C14.078 15.2228 13.0609 15.6445 12 15.6445V13.9932C12.6229 13.9932 13.2197 13.7451 13.6602 13.3047C14.1006 12.8643 14.3486 12.2674 14.3486 11.6445Z" fill="#00000E"/>
<path d="M18 16C20.2092 16 22 14.2092 22 12C22 9.79085 20.2092 8 18 8" fill="#BBFD3B"/>
<path d="M21 12C21 10.3431 19.6569 9 18 9V7C20.7614 7 23 9.23857 23 12C23 14.7614 20.7614 17 18 17V15C19.6569 15 21 13.6569 21 12Z" fill="#00000E"/>
<path d="M6 8C3.79086 8 2 9.79085 2 12C2 14.2092 3.79086 16 6 16" fill="#BBFD3B"/>
<path d="M1 12C1 9.23856 3.23858 7 6 7V9C4.34314 9 3 10.3431 3 12C3 13.6569 4.34314 15 6 15V17C3.23858 17 1 14.7614 1 12Z" fill="#00000E"/>
</svg>
