<svg width="24" height="24" viewBox="0 0 24 24" fill="none" xmlns="http://www.w3.org/2000/svg">
<path d="M12 24L10.26 22.2736C4.08 16.1657 0 12.1373 0 7.19346C0 3.16512 2.904 0 6.6 0C8.688 0 10.692 1.0594 12 2.73352C13.308 1.0594 15.312 0 17.4 0C21.096 0 24 3.16512 24 7.19346C24 12.1373 19.92 16.1657 13.74 22.2866L12 24Z" fill="white"/>
<path d="M22 7.19336C22 4.10422 19.833 2.00022 17.4004 2C15.9852 2 14.5417 2.72906 13.5762 3.96484L12 5.98242L10.4238 3.96484C9.45826 2.72906 8.01483 2 6.59961 2C4.16698 2.00023 2.00005 4.10422 2 7.19336C2 9.06253 2.75468 10.8881 4.41211 13.0967C5.67527 14.7799 7.36491 16.5616 9.4502 18.6514L11.666 20.8516L11.6689 20.8535L12.0049 21.1875L12.3369 20.8613C15.4627 17.7654 17.9041 15.3439 19.5879 13.0986C21.2456 10.8881 22 9.06248 22 7.19336ZM24 7.19336C24 12.1372 19.9202 16.1661 13.7402 22.2871L12 24L10.2598 22.2734C4.07987 16.1656 0 12.1372 0 7.19336C4.84664e-05 3.16521 2.90383 0.000223151 6.59961 0C8.68758 0 10.692 1.05933 12 2.7334C13.308 1.05933 15.3124 0 17.4004 0L17.7441 0.00878906C21.2747 0.198249 24 3.29096 24 7.19336Z" fill="white"/>
<path d="M10.9819 7.98194C11.5443 8.54431 11.5443 9.45609 10.9819 10.0185L9.41836 11.582C8.85599 12.1444 7.94421 12.1444 7.38184 11.582L5.81826 10.0185C5.25589 9.45609 5.25589 8.54431 5.81826 7.98193L7.38184 6.41836C7.94421 5.85599 8.85599 5.85599 9.41836 6.41836L10.9819 7.98194Z" fill="#BBFD3B"/>
<path d="M7.38174 6.41836C7.94411 5.85599 8.8555 5.85599 9.41787 6.41836L10.9813 7.98184C11.5437 8.54421 11.5437 9.4556 10.9813 10.018L9.41787 11.5814C8.89076 12.1086 8.05672 12.1421 7.49111 11.6811L7.38174 11.5814L5.81826 10.018C5.25589 9.4556 5.25589 8.54421 5.81826 7.98184L7.38174 6.41836ZM6.83584 8.99941L8.39932 10.5629L9.96279 8.99941L8.39932 7.43594L6.83584 8.99941Z" fill="#00000E"/>
<path d="M12.6004 22.8L10.2008 21.6C3.54889 15.4397 3 11.9998 3 11.9998C3 11.9998 8.75908 17.437 11.4009 15.5806C13.5013 14.1045 14.2533 12.9495 16.406 10.8446C18.5587 8.73977 20.1727 8.73978 22.326 8.73977C24.4792 8.73976 22.8009 1.93719 22.8009 6.00005C22.8009 10.9863 20.0866 16.0985 13.4347 22.2719L12.6004 22.8Z" fill="#BBFD3B"/>
<path d="M22 7.19336C22 4.10422 19.833 2.00022 17.4004 2C15.9852 2 14.5417 2.72906 13.5762 3.96484L12 5.98242L10.4238 3.96484C9.45826 2.72906 8.01483 2 6.59961 2C4.16698 2.00023 2.00005 4.10422 2 7.19336C2 9.06253 2.75468 10.8881 4.41211 13.0967C5.67527 14.7799 7.36491 16.5616 9.4502 18.6514L11.666 20.8516L11.6689 20.8535L12.0049 21.1875L12.3369 20.8613C15.4627 17.7654 17.9041 15.3439 19.5879 13.0986C21.2456 10.8881 22 9.06248 22 7.19336ZM24 7.19336C24 12.1372 19.9202 16.1661 13.7402 22.2871L12 24L10.2598 22.2734C4.07987 16.1656 0 12.1372 0 7.19336C4.84664e-05 3.16521 2.90383 0.000223151 6.59961 0C8.68758 0 10.692 1.05933 12 2.7334C13.308 1.05933 15.3124 0 17.4004 0L17.7441 0.00878906C21.2747 0.198249 24 3.29096 24 7.19336Z" fill="black"/>
</svg>
