<svg width="24" height="24" viewBox="0 0 24 24" fill="none" xmlns="http://www.w3.org/2000/svg">
<path d="M18.0276 13.1378C18.0276 15.72 16.4149 17.9256 14.1417 18.8023H11.9586H9.77549C7.50232 17.9256 5.88965 15.72 5.88965 13.1378C5.88965 9.786 8.6068 7.06885 11.9586 7.06885C15.3104 7.06885 18.0276 9.786 18.0276 13.1378Z" fill="white"/>
<path d="M17.2686 13.1382C17.2686 10.2055 14.8917 7.82784 11.959 7.82764C9.02615 7.82764 6.64844 10.2053 6.64844 13.1382C6.64859 15.3487 7.99989 17.2445 9.92383 18.0435H13.9941C15.9177 17.2443 17.2684 15.3485 17.2686 13.1382ZM18.7861 13.1382C18.786 16.0441 16.9709 18.5245 14.415 19.5103C14.3279 19.5438 14.2349 19.561 14.1416 19.561H9.77539C9.68223 19.561 9.58987 19.5437 9.50293 19.5103C6.94699 18.5245 5.13101 16.0442 5.13086 13.1382C5.13086 9.3674 8.1882 6.31006 11.959 6.31006C15.7296 6.31026 18.7861 9.36752 18.7861 13.1382Z" fill="#00000E"/>
<path d="M18.0273 13.1377C18.0273 15.72 16.4147 17.9256 14.1415 18.8022H11.9584H9.77526C7.50209 17.9256 7.02734 17.9958 7.02734 15.4136C8.54459 15.7929 8.22725 16.1722 11.5791 16.1722C14.9309 16.1722 18.0273 9.78592 18.0273 13.1377Z" fill="#BBFD3B"/>
<path d="M17.2686 13.1382C17.2686 10.2055 14.8917 7.82784 11.959 7.82764C9.02615 7.82764 6.64844 10.2053 6.64844 13.1382C6.64859 15.3487 7.99989 17.2445 9.92383 18.0435H13.9941C15.9177 17.2443 17.2684 15.3485 17.2686 13.1382ZM18.7861 13.1382C18.786 16.0441 16.9709 18.5245 14.415 19.5103C14.3279 19.5438 14.2349 19.561 14.1416 19.561H9.77539C9.68223 19.561 9.58987 19.5437 9.50293 19.5103C6.94699 18.5245 5.13101 16.0442 5.13086 13.1382C5.13086 9.3674 8.1882 6.31006 11.959 6.31006C15.7296 6.31026 18.7861 9.36752 18.7861 13.1382Z" fill="#00000E"/>
<path d="M14.1417 19.561L13.8841 22.6522C13.8677 22.8488 13.7033 23 13.5061 23H10.411C10.2137 23 10.0494 22.8488 10.033 22.6522L9.77539 19.561" fill="#BBFD3B"/>
<path d="M14.2048 18.8054C14.6221 18.8404 14.932 19.2073 14.8972 19.6247L14.6394 22.7156C14.5902 23.3054 14.0973 23.7585 13.5056 23.7585H10.4109C9.81925 23.7585 9.32627 23.3054 9.27708 22.7156L9.01927 19.6247C8.98448 19.2074 9.29436 18.8404 9.71165 18.8054C10.129 18.7706 10.4959 19.0805 10.531 19.4978L10.7595 22.2419H13.157L13.3855 19.4978C13.4205 19.0805 13.7874 18.7706 14.2048 18.8054Z" fill="#00000E"/>
<path d="M8.92383 12C8.92383 11.581 9.26364 11.2412 9.68262 11.2412C10.1016 11.2412 10.4414 11.581 10.4414 12V13.0479L11.6191 12.459C11.8327 12.3523 12.0843 12.3523 12.2979 12.459L13.4756 13.0479V12C13.4756 11.581 13.8154 11.2412 14.2344 11.2412C14.6533 11.2412 14.9932 11.581 14.9932 12V14.2754C14.9932 14.5383 14.8565 14.7827 14.6328 14.9209C14.4093 15.059 14.1306 15.0715 13.8955 14.9541L11.958 13.9854L10.0215 14.9541C9.78642 15.0715 9.50774 15.059 9.28418 14.9209C9.06053 14.7827 8.92383 14.5383 8.92383 14.2754V12Z" fill="#00000E"/>
<path d="M3.15068 4.88506C2.85442 4.5888 2.85442 4.10847 3.15068 3.81221V3.81221C3.44694 3.51595 3.92728 3.51595 4.22354 3.81221L6.36924 5.95791C6.6655 6.25417 6.6655 6.7345 6.36924 7.03076V7.03076C6.07298 7.32702 5.59265 7.32702 5.29639 7.03076L3.15068 4.88506Z" fill="#00000E"/>
<path d="M20.5065 4.88506C20.8028 4.5888 20.8028 4.10847 20.5065 3.81221V3.81221C20.2103 3.51595 19.73 3.51595 19.4337 3.81221L17.288 5.95791C16.9917 6.25417 16.9917 6.7345 17.288 7.03076V7.03076C17.5842 7.32702 18.0646 7.32702 18.3608 7.03076L20.5065 4.88506Z" fill="#00000E"/>
<path d="M12.7168 1.75862C12.7168 1.33965 12.3772 1 11.9582 1V1C11.5392 1 11.1996 1.33965 11.1996 1.75862L11.1996 4.7931C11.1996 5.21208 11.5392 5.55172 11.9582 5.55172V5.55172C12.3772 5.55172 12.7168 5.21208 12.7168 4.7931L12.7168 1.75862Z" fill="#00000E"/>
</svg>
