<svg width="24" height="24" viewBox="0 0 24 24" fill="none" xmlns="http://www.w3.org/2000/svg">
<path d="M1.43945 11.9999C1.43945 13.3867 1.7126 14.7599 2.24329 16.0411C2.77397 17.3223 3.55182 18.4864 4.5324 19.467C5.51299 20.4476 6.67712 21.2254 7.95832 21.7561C9.23951 22.2868 10.6127 22.5599 11.9995 22.5599C13.3862 22.5599 14.7594 22.2868 16.0406 21.7561C17.3218 21.2254 18.4859 20.4476 19.4665 19.467C20.4471 18.4864 21.2249 17.3223 21.7556 16.0411C22.2863 14.7599 22.5595 13.3867 22.5595 11.9999C22.5595 9.19925 21.4469 6.51328 19.4665 4.53289C17.4861 2.55251 14.8001 1.43994 11.9995 1.43994C9.19877 1.43994 6.51279 2.55251 4.53241 4.53289C2.55202 6.51328 1.43945 9.19925 1.43945 11.9999Z" fill="white"/>
<path d="M20.5595 11.9995C20.5593 9.72939 19.6578 7.55195 18.0526 5.94675C16.4473 4.34145 14.2692 3.43993 11.999 3.43993C9.72888 3.44004 7.55147 4.34155 5.94626 5.94675C4.34106 7.55195 3.43956 9.72937 3.43944 11.9995C3.43944 13.1236 3.66063 14.2373 4.09081 15.2758C4.52098 16.3143 5.15142 17.2583 5.94626 18.0531C6.74112 18.848 7.68508 19.4784 8.72359 19.9086C9.76198 20.3387 10.875 20.5599 11.999 20.56V22.5599L11.4804 22.5472C10.4438 22.4962 9.42052 22.2923 8.44332 21.9428L7.95797 21.7562C6.83682 21.2918 5.80548 20.6378 4.90818 19.8246L4.53221 19.4672C3.67428 18.6093 2.97189 17.6104 2.4541 16.516L2.24316 16.0414C1.71247 14.7602 1.43945 13.3862 1.43945 11.9995C1.43957 9.19894 2.55194 6.51297 4.53221 4.5327C6.51248 2.55243 9.19845 1.44005 11.999 1.43994C14.7996 1.43994 17.4863 2.55232 19.4667 4.5327C21.4469 6.51296 22.5593 9.19896 22.5595 11.9995L22.5468 12.519C22.4872 13.7284 22.2201 14.9203 21.7557 16.0414L21.5448 16.516C21.027 17.6105 20.3246 18.6092 19.4667 19.4672L19.0897 19.8246C18.1926 20.6376 17.1618 21.2919 16.0409 21.7562L15.5556 21.9428C14.4156 22.3505 13.2123 22.5599 11.999 22.5599V20.56C13.1231 20.56 14.2368 20.3388 15.2753 19.9086C16.3138 19.4784 17.2578 18.848 18.0526 18.0531C18.8475 17.2583 19.4779 16.3143 19.9081 15.2758C20.3383 14.2373 20.5595 13.1236 20.5595 11.9995Z" fill="white"/>
<path d="M5.5 16.5002C5.5 16.5002 1.71268 14.76 2.24336 16.0412C2.77405 17.3224 3.5519 18.4865 4.53248 19.4671C5.51307 20.4477 6.6772 21.2255 7.95839 21.7562C9.23959 22.2869 10.6128 22.56 11.9995 22.56C13.3863 22.56 14.7595 22.2869 16.0407 21.7562C17.3219 21.2255 18.486 20.4477 19.4666 19.4671C20.4472 18.4865 21.225 17.3224 21.7557 16.0412C22.2864 14.76 22.5595 13.3868 22.5595 12C22.5595 9.19932 21 11 21 11C21 11 18.6959 12.3262 18.0001 13C15.7166 15.2113 13.0066 13.4683 10.0001 14.5001C8.18105 15.1243 5.5 16.5002 5.5 16.5002Z" fill="#BBFD3B"/>
<path d="M20.5595 11.9995C20.5593 9.72939 19.6578 7.55195 18.0526 5.94675C16.4473 4.34145 14.2692 3.43993 11.999 3.43993C9.72888 3.44004 7.55147 4.34155 5.94626 5.94675C4.34106 7.55195 3.43956 9.72937 3.43944 11.9995C3.43944 13.1236 3.66063 14.2373 4.09081 15.2758C4.52098 16.3143 5.15142 17.2583 5.94626 18.0531C6.74112 18.848 7.68508 19.4784 8.72359 19.9086C9.76198 20.3387 10.875 20.5599 11.999 20.56V22.5599L11.4804 22.5472C10.4438 22.4962 9.42052 22.2923 8.44332 21.9428L7.95797 21.7562C6.83682 21.2918 5.80548 20.6378 4.90818 19.8246L4.53221 19.4672C3.67428 18.6093 2.97189 17.6104 2.4541 16.516L2.24316 16.0414C1.71247 14.7602 1.43945 13.3862 1.43945 11.9995C1.43957 9.19894 2.55194 6.51297 4.53221 4.5327C6.51248 2.55243 9.19845 1.44005 11.999 1.43994C14.7996 1.43994 17.4863 2.55232 19.4667 4.5327C21.4469 6.51296 22.5593 9.19896 22.5595 11.9995L22.5468 12.519C22.4872 13.7284 22.2201 14.9203 21.7557 16.0414L21.5448 16.516C21.027 17.6105 20.3246 18.6092 19.4667 19.4672L19.0897 19.8246C18.1926 20.6376 17.1618 21.2919 16.0409 21.7562L15.5556 21.9428C14.4156 22.3505 13.2123 22.5599 11.999 22.5599V20.56C13.1231 20.56 14.2368 20.3388 15.2753 19.9086C16.3138 19.4784 17.2578 18.848 18.0526 18.0531C18.8475 17.2583 19.4779 16.3143 19.9081 15.2758C20.3383 14.2373 20.5595 13.1236 20.5595 11.9995Z" fill="black"/>
<path d="M10.1044 7.87814C10.1471 7.94684 10.1764 8.02362 10.1906 8.10407C10.2047 8.18452 10.2035 8.26708 10.1869 8.34703C10.1702 8.42697 10.1386 8.50274 10.0938 8.57C10.049 8.63727 9.99182 8.69471 9.9256 8.73904C8.8564 9.45425 8.2 10.6705 8.2 12.0017C8.2 14.1502 9.9 15.8949 12 15.8949C14.1 15.8949 15.8 14.1502 15.8 12.0013C15.8 10.6833 15.1564 9.4775 14.1048 8.75938C14.039 8.71441 13.9823 8.65643 13.9381 8.58874C13.8939 8.52105 13.8629 8.44499 13.8471 8.36489C13.8312 8.2848 13.8306 8.20224 13.8455 8.12192C13.8603 8.04161 13.8903 7.96512 13.9336 7.89682C13.9769 7.82851 14.0328 7.76974 14.098 7.72385C14.1633 7.67795 14.2366 7.64584 14.3137 7.62934C14.3909 7.61285 14.4705 7.61229 14.5479 7.6277C14.6253 7.64311 14.699 7.67418 14.7648 7.71916C16.1492 8.66516 17 10.2591 17 12.0017C17 14.8405 14.76 17.1401 12 17.1401C9.24 17.1401 7 14.8409 7 12.0013C7 10.2417 7.868 8.63402 9.2752 7.69259C9.40888 7.60314 9.57132 7.57244 9.72681 7.60723C9.8823 7.64202 10.0181 7.73947 10.1044 7.87814ZM12 6.14014C12.1591 6.14014 12.3117 6.20574 12.4243 6.3225C12.5368 6.43927 12.6 6.59764 12.6 6.76278V11.7439C12.6 11.909 12.5368 12.0674 12.4243 12.1842C12.3117 12.301 12.1591 12.3666 12 12.3666C11.8409 12.3666 11.6883 12.301 11.5757 12.1842C11.4632 12.0674 11.4 11.909 11.4 11.7439V6.76278C11.4 6.59764 11.4632 6.43927 11.5757 6.3225C11.6883 6.20574 11.8409 6.14014 12 6.14014Z" fill="#00000E"/>
<path d="M7.9502 12.0015C7.95027 10.5876 8.64711 9.29272 9.78613 8.53076C9.82466 8.50497 9.85887 8.47148 9.88574 8.43115C9.91256 8.39088 9.93223 8.34521 9.94238 8.29639C9.95254 8.24746 9.953 8.19625 9.94434 8.14697C9.93566 8.09794 9.91812 8.05139 9.89258 8.01025C9.84072 7.92692 9.76011 7.87082 9.67188 7.85107C9.58402 7.83152 9.49137 7.84822 9.41406 7.8999C8.07692 8.79447 7.25 10.3245 7.25 12.0015C7.2501 14.7094 9.38445 16.8901 12 16.8901C14.6156 16.8901 16.75 14.7086 16.75 12.0015C16.7499 10.3408 15.9395 8.82422 14.624 7.92529C14.5857 7.89913 14.543 7.88132 14.499 7.87256C14.4551 7.86383 14.41 7.86421 14.3662 7.87354C14.3224 7.8829 14.2801 7.90158 14.2422 7.92822C14.2042 7.95497 14.1706 7.98975 14.1445 8.03076C14.1185 8.07178 14.0999 8.11833 14.0908 8.16748C14.0818 8.21648 14.0822 8.26706 14.0918 8.31592C14.1015 8.36486 14.121 8.41108 14.1475 8.45166C14.174 8.49227 14.2078 8.52704 14.2461 8.55322C15.3662 9.31831 16.0498 10.6017 16.0498 12.0015C16.0497 14.2825 14.2438 16.145 12 16.145C9.75613 16.145 7.9502 14.2822 7.9502 12.0015ZM12.3496 6.76318C12.3496 6.66143 12.3109 6.56484 12.2441 6.49561C12.1778 6.42684 12.0897 6.39014 12 6.39014C11.9103 6.39014 11.8222 6.42684 11.7559 6.49561C11.6891 6.56484 11.6504 6.66143 11.6504 6.76318V11.7437C11.6504 11.8453 11.6893 11.941 11.7559 12.0103C11.8223 12.0792 11.9102 12.1167 12 12.1167C12.0898 12.1167 12.1777 12.0792 12.2441 12.0103C12.3107 11.941 12.3496 11.8453 12.3496 11.7437V6.76318ZM17.25 12.0015C17.25 14.972 14.9044 17.3901 12 17.3901C9.09567 17.3901 6.7501 14.9727 6.75 12.0015C6.75 10.1594 7.65869 8.4732 9.13574 7.48486C9.32561 7.35782 9.55835 7.31299 9.78125 7.36279C10.0038 7.4126 10.1957 7.55183 10.3164 7.74561C10.3762 7.84172 10.4169 7.9494 10.4365 8.06104C10.4561 8.17259 10.4547 8.28706 10.4316 8.39795C10.4086 8.50886 10.3645 8.61435 10.3018 8.7085C10.239 8.8027 10.1584 8.8839 10.0645 8.94678C9.06529 9.61517 8.45027 10.7531 8.4502 12.0015C8.4502 14.0178 10.0439 15.645 12 15.645C13.9561 15.645 15.5497 14.0181 15.5498 12.0015C15.5498 10.7656 14.9466 9.6375 13.9639 8.96631V8.96533C13.8706 8.90159 13.7904 8.81981 13.7285 8.7251C13.6668 8.63046 13.6236 8.52458 13.6016 8.41357C13.5795 8.30249 13.579 8.18802 13.5996 8.07666C13.6202 7.96527 13.6621 7.85872 13.7227 7.76318C13.7833 7.6676 13.8617 7.58408 13.9541 7.51904C14.0465 7.45403 14.1513 7.40885 14.2617 7.38525C14.3721 7.36168 14.486 7.36029 14.5967 7.38232C14.7075 7.40438 14.8129 7.44941 14.9062 7.51318C16.3591 8.50622 17.2499 10.1774 17.25 12.0015ZM12.8496 11.7437C12.8496 11.9722 12.7628 12.1936 12.6045 12.3579C12.4459 12.5225 12.2285 12.6167 12 12.6167C11.7715 12.6167 11.5541 12.5225 11.3955 12.3579C11.2372 12.1936 11.1504 11.9722 11.1504 11.7437V6.76318C11.1504 6.53469 11.2372 6.31322 11.3955 6.14893C11.5541 5.98431 11.7715 5.89014 12 5.89014C12.2285 5.89014 12.4459 5.98431 12.6045 6.14893C12.7628 6.31322 12.8496 6.53469 12.8496 6.76318V11.7437Z" fill="#00000E"/>
</svg>
