<svg width="72" height="36" viewBox="0 0 72 36" fill="none" xmlns="http://www.w3.org/2000/svg">
<path d="M11.7559 11.1504H13.0527L12.8877 14.0664H11.5684L10.5723 30.9355L7.63867 29.0312L8.56445 14.0664H7.20215L7.37695 11.1504L8.77734 11.1699L9.08691 6.41797H12.0225L11.7559 11.1504ZM44.8281 25.4375C42.715 26.3639 40.6848 27.3712 38.4385 28.3135L38.8486 23.6064H40.9824C41.8594 23.6062 41.9011 22.9541 41.9658 22.3672L42.9023 6.61328H45.8643L44.8281 25.4375ZM19.7197 9.71289L24.3906 9.6748L24.1074 14.3467L26.5879 17.2324L24.9932 20.0156L23.6807 18.4199C23.5781 20.1209 23.4064 23.1266 23.3848 23.1562C23.0205 24.8968 21.215 25.5995 20.4639 25.583H17.5781L17.1738 22.5459C17.9108 22.5375 19.3789 22.5263 19.4004 22.5459C20.1492 22.6671 20.4216 21.7536 20.4639 21.2812L21.2227 12.6055H19.4004C18.4816 21.7272 15.5994 24.438 14.127 25.8223L14.1113 25.8359L11.9102 23.6602C15.2486 21.2813 16.2504 15.3447 16.3633 12.6055H13.5713L13.7734 9.70215L16.6406 9.6748L16.8828 6.41797H19.9072L19.7197 9.71289ZM56.6045 7.87402H60.4053C60.3693 8.39875 60.2954 9.44244 60.2871 9.45312C61.3758 8.49143 62.5357 7.06738 62.5498 7.06738C62.9599 7.19488 65.1715 8.39228 65.166 8.45312C64.8493 8.97347 62.8929 10.9459 61.9541 11.8672H65.2422L65.0684 14.4844H58.6309L56.793 15.751H63.2959L62.6914 25.7842L59.5986 25.7744L59.6436 25.0186H51.7881L51.7354 25.7842H48.6816C48.7927 23.6497 49.0223 19.3921 49.0527 19.4043C48.321 19.7009 47.3136 19.9895 46.9014 20.0967C46.7085 19.1157 46.3312 17.1604 46.3574 17.1543C49.7991 16.3927 52.437 15.0572 53.3252 14.4844H46.8271L46.9756 11.874H53.2402L53.3252 10.418L48.4639 10.4062L48.6123 7.91211L53.4727 7.87695L53.5654 6.31445L56.709 6.30859L56.6045 7.87402ZM35.1016 6.61328C34.9578 6.93799 34.6609 7.58949 34.6201 7.6084C35.1086 7.96874 37.3689 10.6688 38.4385 11.9736L36.8984 13.7227L36.6416 18.1348C36.5903 20.073 34.8657 20.6754 34.0098 20.7344H32.0205L31.7314 18.1348C32.1702 18.1455 33.0572 18.1604 33.0957 18.1348C33.8526 18.2371 34.0205 17.6319 34.0098 17.3164L34.1064 15.8564H31.0576C30.9346 17.8302 30.6885 21.7811 30.6885 21.7939C30.7142 22.5127 31.2878 22.6493 31.5713 22.6279C32.4968 22.6333 34.3467 22.6408 34.3467 22.6279C35.1551 22.5381 35.0452 22.3778 35.1973 21.9219L35.5664 20.3818L37.8936 21.1035C37.8751 21.1626 37.7403 21.7162 37.3506 23.457C36.9609 25.1979 35.8774 25.2457 34.7852 25.2861C34.2006 25.3078 32.5182 25.3381 30.4658 25.2861C28.4133 25.2342 27.8128 23.8782 27.7695 23.207L28.2451 15.1367L27.5752 15.6074L26.5879 12.6055C28.9158 11.2121 30.9797 7.89995 31.7207 6.41797L35.1016 6.61328ZM51.8643 22.752H59.7686L59.8418 21.5469L51.9336 21.4951L51.8643 22.752ZM52.1436 18.2676L51.9336 21.3818L60.0029 18.9639L60.0459 18.2607L52.1436 18.2676ZM40.6855 20.4951H37.9795L38.668 9.01465H41.374L40.6855 20.4951ZM15.5791 14.3467C15.3592 16.0078 14.2745 18.5889 13.5713 19.8389C12.9562 19.5268 11.7263 18.8807 11.7256 18.8398C12.2438 18.0164 13.274 15.0214 13.5713 13.7646C14.2366 13.9551 15.5492 14.3326 15.5791 14.3467ZM33.0957 10.0801C32.3257 11.0907 30.7081 13.1215 30.3994 13.1611H35.4385C34.7329 12.1348 33.3657 10.354 33.0957 10.0801ZM56.457 10.418L56.3779 11.874H57.5439L59.2686 10.418H56.457Z" fill="white"/>
<path d="M36.7997 28.9573C22.0771 35.3571 8.67348 37.1494 5.62594 32.7952C4.87561 31.7228 4.81652 30.3679 5.35934 28.8187C5.3015 29.5907 5.4653 30.2838 5.87399 30.8792C8.72202 35.0275 22.3491 32.9489 37.0068 26.3197L36.7997 28.9573ZM43.6581 3.37252C54.4285 -0.0308233 63.1878 -0.397652 65.578 3.01706C66.3757 4.15676 66.391 5.61544 65.7343 7.28754L62.8856 5.8481C63.0303 4.93106 62.882 4.1153 62.411 3.42916C60.3979 0.496997 52.9998 0.675518 43.6581 3.37252Z" fill="white"/>
<path d="M17.7966 27.7275C17.8518 27.7275 17.8966 27.7723 17.8966 27.8275V31.007C17.8966 31.0623 17.8518 31.107 17.7966 31.107H17.3188C17.2635 31.107 17.2188 31.0623 17.2188 31.007V27.8275C17.2188 27.7723 17.2635 27.7275 17.3188 27.7275H17.7966Z" fill="white"/>
<path d="M15.8486 30.5304C15.8346 30.4901 15.7967 30.4631 15.7541 30.4631H14.5505C14.5079 30.4631 14.4699 30.4901 14.456 30.5304L14.2798 31.0397C14.2659 31.08 14.228 31.107 14.1853 31.107H13.687C13.6178 31.107 13.5695 31.0384 13.5929 30.9732L14.7363 27.7889C14.7506 27.7491 14.7882 27.7227 14.8304 27.7227H15.479C15.5212 27.7227 15.5588 27.7491 15.5731 27.7889L16.7165 30.9732C16.7399 31.0384 16.6916 31.107 16.6224 31.107H16.1192C16.0766 31.107 16.0386 31.08 16.0247 31.0397L15.8486 30.5304ZM15.5009 29.9208C15.5696 29.9208 15.6179 29.8531 15.5954 29.7881L15.2468 28.7802C15.2157 28.6905 15.0888 28.6905 15.0578 28.7802L14.7092 29.7881C14.6867 29.8531 14.7349 29.9208 14.8037 29.9208H15.5009Z" fill="white"/>
<path d="M12.7953 31.1407C12.6726 31.1407 12.5709 31.1036 12.4902 31.0294C12.4128 30.9519 12.374 30.8567 12.374 30.7437C12.374 30.6307 12.4128 30.5371 12.4902 30.4629C12.5709 30.3854 12.6726 30.3467 12.7953 30.3467C12.9147 30.3467 13.0131 30.3854 13.0906 30.4629C13.1681 30.5371 13.2068 30.6307 13.2068 30.7437C13.2068 30.8567 13.1681 30.9519 13.0906 31.0294C13.0131 31.1036 12.9147 31.1407 12.7953 31.1407Z" fill="white"/>
</svg>
