<svg width="21" height="16" viewBox="0 0 21 16" fill="none" xmlns="http://www.w3.org/2000/svg">
<path d="M0.799805 1.82838C0.799805 1.26031 1.22961 0.799805 1.7598 0.799805H19.0398C19.57 0.799805 19.9998 1.26031 19.9998 1.82838V14.1712C19.9998 14.7393 19.57 15.1998 19.0398 15.1998H1.7598C1.22961 15.1998 0.799805 14.7393 0.799805 14.1712V1.82838Z" fill="white"/>
<path d="M19.2002 1.82812C19.2001 1.74744 19.1696 1.68488 19.1338 1.64648C19.099 1.6093 19.0655 1.59967 19.04 1.59961H1.75977C1.73426 1.59962 1.70088 1.60928 1.66602 1.64648C1.63018 1.68488 1.59967 1.74745 1.59961 1.82812V14.1709C1.59961 14.2517 1.63015 14.3141 1.66602 14.3525C1.70098 14.39 1.73418 14.3994 1.75977 14.3994H19.04C19.0656 14.3994 19.0989 14.3899 19.1338 14.3525C19.1696 14.3141 19.2002 14.2517 19.2002 14.1709V1.82812ZM20.7998 14.1709C20.7998 15.1279 20.063 15.9999 19.04 16H1.75977C0.736682 16 0 15.1279 0 14.1709V1.82812C0.000128871 0.871226 0.736764 2.2206e-05 1.75977 0H19.04C20.063 0.000132142 20.7997 0.871294 20.7998 1.82812V14.1709Z" fill="#00000E"/>
<path d="M12.3998 4.3999H8.7998V11.5999H12.3998V4.3999Z" fill="#BBFD3B"/>
<path d="M12.3994 3.6001C12.8412 3.6001 13.2002 3.95807 13.2002 4.3999V11.6001C13.2001 12.0418 12.8412 12.3999 12.3994 12.3999H8.7998C8.35804 12.3999 8.00011 12.0418 8 11.6001V4.3999C8 3.95807 8.35798 3.6001 8.7998 3.6001H12.3994ZM9.59961 10.8003H11.5996V5.19971H9.59961V10.8003Z" fill="#00000E"/>
<path d="M19.6 4.3999H16V11.5999H19.6" fill="#BBFD3B"/>
<path d="M19.5996 3.6001C20.0414 3.6001 20.4004 3.95807 20.4004 4.3999C20.4004 4.84173 20.0414 5.19971 19.5996 5.19971H16.7998V10.8003H19.5996C20.0414 10.8003 20.4004 11.1583 20.4004 11.6001C20.4003 12.0418 20.0414 12.3999 19.5996 12.3999H16C15.5582 12.3999 15.2003 12.0418 15.2002 11.6001V4.3999C15.2002 3.95807 15.5582 3.6001 16 3.6001H19.5996Z" fill="#00000E"/>
<path d="M1.59961 4.3999H5.19961V11.5999H1.59961" fill="#BBFD3B"/>
<path d="M5.19922 3.6001C5.64105 3.6001 6 3.95807 6 4.3999V11.6001C5.99989 12.0418 5.64098 12.3999 5.19922 12.3999H1.59961C1.15785 12.3999 0.79991 12.0418 0.799805 11.6001C0.799805 11.1583 1.15778 10.8003 1.59961 10.8003H4.39941V5.19971H1.59961C1.15778 5.19971 0.799805 4.84173 0.799805 4.3999C0.799805 3.95807 1.15778 3.6001 1.59961 3.6001H5.19922Z" fill="#00000E"/>
<path d="M19.2002 1.82812C19.2001 1.74744 19.1696 1.68488 19.1338 1.64648C19.099 1.6093 19.0655 1.59967 19.04 1.59961H1.75977C1.73426 1.59962 1.70088 1.60928 1.66602 1.64648C1.63018 1.68488 1.59967 1.74745 1.59961 1.82812V14.1709C1.59961 14.2517 1.63015 14.3141 1.66602 14.3525C1.70098 14.39 1.73418 14.3994 1.75977 14.3994H19.04C19.0656 14.3994 19.0989 14.3899 19.1338 14.3525C19.1696 14.3141 19.2002 14.2517 19.2002 14.1709V1.82812ZM20.7998 14.1709C20.7998 15.1279 20.063 15.9999 19.04 16H1.75977C0.736682 16 0 15.1279 0 14.1709V1.82812C0.000128871 0.871226 0.736764 2.2206e-05 1.75977 0H19.04C20.063 0.000132142 20.7997 0.871294 20.7998 1.82812V14.1709Z" fill="#00000E"/>
</svg>
