<svg width="24" height="24" viewBox="0 0 24 24" fill="none" xmlns="http://www.w3.org/2000/svg">
<path d="M6.7998 5.64429C6.7998 6.929 7.31015 8.16109 8.21858 9.06952C9.12701 9.97794 10.3591 10.4883 11.6438 10.4883C12.9285 10.4883 14.1606 9.97794 15.069 9.06952C15.9775 8.16109 16.4878 6.929 16.4878 5.64429C16.4878 4.35958 15.9775 3.12749 15.069 2.21907C14.1606 1.31064 12.9285 0.800293 11.6438 0.800293C10.3591 0.800293 9.12701 1.31064 8.21858 2.21907C7.31015 3.12749 6.7998 4.35958 6.7998 5.64429Z" fill="white"/>
<path d="M14.4883 5.64404C14.4882 4.88997 14.1884 4.16657 13.6553 3.6333C13.1219 3.09995 12.3978 2.80029 11.6436 2.80029C10.8894 2.80036 10.1661 3.10001 9.63281 3.6333C9.09952 4.1666 8.79987 4.88986 8.7998 5.64404C8.7998 6.39832 9.09946 7.12241 9.63281 7.65576C10.1661 8.18891 10.8895 8.4887 11.6436 8.48877V10.4888L11.4033 10.4819C10.2859 10.4264 9.22188 9.98584 8.39258 9.23486L8.21875 9.06982C7.31032 8.1614 6.7998 6.92875 6.7998 5.64404C6.79987 4.43975 7.24824 3.28158 8.05273 2.39307L8.21875 2.21924C9.12712 1.31087 10.3589 0.800359 11.6436 0.800293C12.9283 0.800293 14.1609 1.31081 15.0693 2.21924C15.9776 3.12758 16.4882 4.35954 16.4883 5.64404L16.4814 5.88428C16.4221 7.0816 15.921 8.21813 15.0693 9.06982L14.8945 9.23486C14.006 10.0394 12.8479 10.4888 11.6436 10.4888V8.48877C12.3978 8.48877 13.1219 8.18911 13.6553 7.65576C14.1886 7.12241 14.4883 6.39832 14.4883 5.64404Z" fill="#00000E"/>
<path d="M10.7215 20.7682C10.7215 18.3199 12.0146 16.1861 13.9388 15.0411C14.7537 14.5562 14.9681 13.2255 14.0585 12.9577C13.1886 12.7016 12.2835 12.5703 11.369 12.5718C6.2668 12.5718 2.08255 16.5952 1.65915 21.7175C1.62001 22.1775 1.98293 22.5718 2.43124 22.5718H9.65482C10.3151 22.5718 10.7927 21.9394 10.7419 21.2811C10.7287 21.1106 10.7219 20.9395 10.7215 20.7682Z" fill="white"/>
<path d="M10.7215 20.7678C10.7215 18.3195 12.0146 16.1858 13.9388 15.0407C14.7537 14.5559 14.7838 14.3056 13.9355 14.7293C11.6489 15.8714 8.73912 17.9978 7.5 17.9998C2.39778 17.9998 2.08255 16.5948 1.65915 21.7171C1.62001 22.1771 1.98293 22.5714 2.43124 22.5714H9.65482C10.3151 22.5714 10.7927 21.9391 10.7419 21.2808C10.7287 21.1103 10.7219 20.9392 10.7215 20.7678Z" fill="#BBFD3B"/>
<path d="M11.3696 11.5728C12.3803 11.5713 13.3803 11.7156 14.3413 11.9985C14.8135 12.1376 15.1859 12.4368 15.4116 12.8403C15.6267 13.2252 15.6772 13.6456 15.6411 14.0151C15.5709 14.7324 15.153 15.4829 14.4506 15.9009C12.8243 16.8687 11.7222 18.6784 11.7221 20.7681C11.7225 20.9136 11.7285 21.0589 11.7397 21.2036C11.8255 22.3142 11.0198 23.5715 9.65572 23.5718H2.43209C1.38869 23.5718 0.577152 22.6676 0.663536 21.6353C1.12758 16.0213 5.71993 11.5737 11.3676 11.5728H11.3696ZM11.3696 13.5718C6.88886 13.5718 3.16591 17.0523 2.68014 21.5718H9.65572C9.65708 21.5718 9.65633 21.5715 9.65768 21.5708C9.66145 21.5688 9.67414 21.5618 9.6899 21.5425C9.72622 21.4979 9.75093 21.4273 9.74557 21.3579C9.7305 21.1628 9.72262 20.9671 9.72213 20.771V20.7681C9.72218 17.9613 11.2062 15.5044 13.4282 14.1821C13.4767 14.1532 13.5311 14.1014 13.5766 14.0269C13.608 13.9755 13.6256 13.9233 13.6372 13.8784C12.9018 13.6754 12.1404 13.5706 11.3715 13.5718H11.3696Z" fill="#00000E"/>
<path d="M20.2936 23C20.8044 23 21.277 22.7297 21.536 22.2894L23.041 19.7308C23.3064 19.2797 23.3064 18.7203 23.041 18.2692L21.536 15.7106C21.277 15.2703 20.8044 15 20.2936 15H17.2365C16.7258 15 16.2531 15.2703 15.9941 15.7106L14.4891 18.2691C14.2237 18.7203 14.2237 19.2797 14.4891 19.7309L15.9941 22.2894C16.2531 22.7297 16.7258 23 17.2365 23H20.2936Z" fill="#00000E"/>
<path d="M18.7646 20.5005C19.5931 20.5005 20.2646 19.8289 20.2646 19.0005C20.2646 18.1721 19.5931 17.5005 18.7646 17.5005C17.9362 17.5005 17.2646 18.1721 17.2646 19.0005C17.2646 19.8289 17.9362 20.5005 18.7646 20.5005Z" fill="white"/>
</svg>
