<svg width="32" height="32" viewBox="0 0 32 32" fill="none" xmlns="http://www.w3.org/2000/svg">
<path d="M12.3153 6.8868C13.2759 4.26104 16.9895 4.26104 17.9501 6.8868L19.1376 10.1329C19.4384 10.9551 20.0834 11.6049 20.9034 11.9118L24.2086 13.1489C26.8065 14.1213 26.8065 17.7959 24.2086 18.7682L20.9034 20.0053C20.0834 20.3122 19.4384 20.962 19.1376 21.7843L17.9501 25.0304C16.9895 27.6561 13.2759 27.6561 12.3153 25.0304L11.1278 21.7843C10.827 20.962 10.182 20.3122 9.36202 20.0053L6.05678 18.7682C3.45893 17.7959 3.45894 14.1213 6.05679 13.1489L9.36202 11.9118C10.182 11.6049 10.827 10.9551 11.1278 10.1329L12.3153 6.8868Z" fill="url(#paint0_linear_16419_116680)"/>
<path d="M12.3157 6.8866C13.2764 4.2612 16.9899 4.26102 17.9504 6.8866L19.1379 10.1327C19.4387 10.9549 20.0836 11.6051 20.9036 11.912L24.2082 13.1493C26.8061 14.1216 26.8061 17.7961 24.2082 18.7684L20.9036 20.0057L20.7512 20.0673C20.004 20.3946 19.4199 21.0135 19.1379 21.7841L17.9504 25.0301L17.8518 25.2684C16.7951 27.5766 13.47 27.5766 12.4133 25.2684L12.3157 25.0301L11.1282 21.7841C10.8462 21.0134 10.2613 20.3946 9.51391 20.0673L9.36157 20.0057L6.05688 18.7684C3.54029 17.8265 3.46139 14.3485 5.82055 13.2479L6.05688 13.1493L9.36157 11.912C10.1303 11.6242 10.7459 11.0351 11.0676 10.285L11.1282 10.1327L12.3157 6.8866ZM16.0715 7.5741C15.7513 6.69885 14.5138 6.69884 14.1936 7.5741L13.0061 10.8202C12.5047 12.1905 11.4293 13.2735 10.0627 13.785L6.75805 15.0223C5.89209 15.3465 5.89211 16.5713 6.75805 16.8954L10.0627 18.1327C11.4294 18.6442 12.5048 19.7271 13.0061 21.0975L14.1936 24.3436C14.5139 25.2184 15.7511 25.2184 16.0715 24.3436L17.259 21.0975C17.7604 19.7271 18.8357 18.6442 20.2024 18.1327L23.5071 16.8954C24.373 16.5713 24.373 15.3464 23.5071 15.0223L20.2024 13.785C18.8358 13.2735 17.7604 12.1906 17.259 10.8202L16.0715 7.5741Z" fill="#00000E"/>
<path d="M21.7669 17.5139C22.2949 17.3527 22.8535 17.6499 23.0149 18.178C23.1661 18.6731 22.9148 19.1955 22.4475 19.3919L22.3509 19.4261L22.3499 19.427C22.3491 19.4273 22.3482 19.4276 22.347 19.428C22.3445 19.4288 22.3406 19.4296 22.3362 19.4309C22.3273 19.4336 22.3145 19.4378 22.2981 19.4427C22.2651 19.4525 22.2169 19.4667 22.1555 19.4846C22.0325 19.5206 21.855 19.5711 21.6341 19.6321C21.1923 19.754 20.5744 19.917 19.8684 20.0804C18.477 20.4024 16.6659 20.7454 15.1819 20.7542C13.6491 20.7633 11.7763 20.4202 10.3372 20.094C9.60706 19.9285 8.96802 19.7625 8.51101 19.638C8.2823 19.5756 8.09831 19.5234 7.97098 19.4866C7.90736 19.4682 7.85767 19.4538 7.82351 19.4436C7.80674 19.4387 7.79361 19.4347 7.78445 19.4319C7.78003 19.4306 7.77624 19.4288 7.77371 19.428C7.77244 19.4276 7.77056 19.4273 7.7698 19.427H7.76883C7.24032 19.2668 6.94166 18.7085 7.10183 18.18C7.26205 17.6514 7.82039 17.3528 8.34891 17.513L8.35086 17.5139C8.35248 17.5144 8.35525 17.5149 8.35867 17.5159C8.36588 17.5181 8.37703 17.5213 8.39187 17.5257C8.42197 17.5346 8.46742 17.5486 8.52664 17.5657C8.64504 17.6 8.81875 17.6489 9.03641 17.7083C9.47253 17.8272 10.0836 17.9851 10.7796 18.1429C12.1928 18.4631 13.8789 18.7618 15.1702 18.7542C16.4205 18.7467 18.051 18.4483 19.4173 18.1321C20.0901 17.9764 20.6803 17.8207 21.1018 17.7044C21.3124 17.6463 21.4805 17.5982 21.595 17.5647C21.652 17.5481 21.6958 17.5353 21.7249 17.5266C21.7392 17.5223 21.7501 17.519 21.7571 17.5169C21.7606 17.5158 21.7634 17.5144 21.7649 17.5139H21.7669Z" fill="#00000E"/>
<path d="M16.6807 14.1173C17.065 13.7868 17.645 13.7941 18.0205 14.1505C18.3959 14.5068 18.4337 15.0855 18.1241 15.4864L18.0567 15.5645L18.0557 15.5655L18.0547 15.5675C18.0536 15.5687 18.0515 15.5696 18.0498 15.5714C18.0464 15.575 18.0418 15.5802 18.0362 15.586C18.0246 15.5979 18.0084 15.6147 17.9883 15.6349C17.948 15.6754 17.8907 15.732 17.8203 15.7989C17.6808 15.9317 17.483 16.1113 17.2539 16.294C17.0282 16.4741 16.7518 16.6734 16.4561 16.8331C16.1787 16.9829 15.7881 17.1513 15.3555 17.1602C14.9059 17.1694 14.4975 17.0048 14.208 16.8556C13.9003 16.6968 13.6129 16.4953 13.3789 16.3126C13.1415 16.1271 12.9365 15.9435 12.792 15.8077C12.7193 15.7394 12.6599 15.6813 12.6182 15.6397C12.5975 15.6191 12.5813 15.6021 12.5694 15.5899L12.5469 15.5675C12.1652 15.1685 12.1792 14.5352 12.5782 14.1534C12.9769 13.7719 13.6093 13.7856 13.9912 14.1837L13.9922 14.1847C13.9934 14.1859 13.9951 14.1884 13.9981 14.1915C14.0046 14.1982 14.0157 14.2091 14.0303 14.2237C14.0599 14.2532 14.1054 14.2974 14.1621 14.3507C14.2767 14.4583 14.4343 14.5989 14.6104 14.7364C14.7901 14.8768 14.9679 14.9976 15.1241 15.0782C15.2282 15.1319 15.2903 15.1508 15.3145 15.1573C15.338 15.1503 15.4002 15.1304 15.5059 15.0733C15.6589 14.9907 15.8326 14.8695 16.0069 14.7306C16.1779 14.5942 16.3315 14.4553 16.4424 14.3497C16.4971 14.2976 16.5398 14.2544 16.5684 14.2257L16.6065 14.1876L16.6807 14.1173Z" fill="#00000E"/>
<path d="M20.6675 4.87055C20.7316 4.6955 20.9792 4.6955 21.0432 4.87055L21.463 6.01798C21.483 6.07279 21.526 6.11611 21.5807 6.13657L22.7215 6.56356C22.8947 6.62838 22.8947 6.87336 22.7215 6.93818L21.5807 7.36516C21.526 7.38562 21.483 7.42894 21.463 7.48376L21.0432 8.63119C20.9792 8.80624 20.7316 8.80624 20.6675 8.63119L20.2478 7.48376C20.2277 7.42894 20.1847 7.38562 20.1301 7.36516L18.9893 6.93818C18.8161 6.87336 18.8161 6.62838 18.9893 6.56356L20.1301 6.13657C20.1847 6.11611 20.2277 6.07279 20.2478 6.01798L20.6675 4.87055Z" fill="#DCDCDC"/>
<path d="M20.6677 4.87103C20.7317 4.69598 20.9796 4.69598 21.0436 4.87103L21.4635 6.01849C21.4837 6.07309 21.5263 6.11623 21.5807 6.13666L22.7214 6.56342C22.8946 6.62824 22.8946 6.87359 22.7214 6.93842L21.5807 7.36517C21.5261 7.38564 21.4836 7.4295 21.4635 7.48432L21.0436 8.63178L21.0114 8.68842C20.9333 8.7872 20.7781 8.7871 20.6999 8.68842L20.6677 8.63178L20.2477 7.48432C20.2277 7.42958 20.1851 7.38567 20.1305 7.36517L18.9889 6.93842C18.8162 6.8734 18.8161 6.62834 18.9889 6.56342L20.1305 6.13666C20.1849 6.11618 20.2277 6.07305 20.2477 6.01849L20.6677 4.87103Z" fill="#00000E"/>
<path d="M24.3566 6.18424C24.4527 5.92166 24.824 5.92166 24.9201 6.18424L25.6314 8.12875C25.6615 8.21097 25.726 8.27595 25.808 8.30665L27.74 9.02978C27.9998 9.12701 27.9998 9.49447 27.74 9.5917L25.808 10.3148C25.726 10.3455 25.6615 10.4105 25.6314 10.4927L24.9201 12.4372C24.824 12.6998 24.4527 12.6998 24.3566 12.4372L23.6452 10.4927C23.6152 10.4105 23.5507 10.3455 23.4687 10.3148L21.5366 9.59171C21.2769 9.49447 21.2769 9.12701 21.5366 9.02978L23.4687 8.30665C23.5507 8.27595 23.6152 8.21097 23.6452 8.12875L24.3566 6.18424Z" fill="#DCDCDC"/>
<path d="M24.356 6.18424C24.452 5.92166 24.8234 5.92166 24.9194 6.18424L25.6314 8.12857C25.6615 8.21068 25.7262 8.27565 25.8081 8.30631L27.7398 9.02896C27.9995 9.1262 27.9995 9.49423 27.7398 9.59146L27.4946 9.68228L25.8081 10.3141C25.7261 10.3448 25.6614 10.4106 25.6314 10.4928L24.9194 12.4372L24.8989 12.4831C24.7867 12.6842 24.4898 12.6841 24.3775 12.4831L24.356 12.4372L23.645 10.4928C23.615 10.4106 23.5503 10.3448 23.4683 10.3141L21.5366 9.59146C21.2769 9.49423 21.2769 9.1262 21.5366 9.02896L23.4683 8.30631C23.5502 8.27563 23.6149 8.21073 23.645 8.12857L24.356 6.18424Z" fill="#00000E"/>
<defs>
<linearGradient id="paint0_linear_16419_116680" x1="15.1965" y1="24.7593" x2="15.1267" y2="17.8438" gradientUnits="userSpaceOnUse">
<stop offset="0.673914" stop-color="#BBFD3B"/>
<stop offset="0.837667" stop-color="white"/>
</linearGradient>
</defs>
</svg>
