<svg width="32" height="32" viewBox="0 0 32 32" fill="none" xmlns="http://www.w3.org/2000/svg">
<path d="M28 24.0002V9.3335L24 12.0002L16 13.3335L6.66667 12.0002L4 9.3335V24.0002L8.24317 25.5789L12.1751 26.1239L17.8978 26.6689L23.2701 25.5789L26.6959 24.7224L28 24.0002Z" fill="#41FAF4"/>
<path d="M28 24.0002V9.3335L24 12.0002L16 13.3335L6.66667 12.0002L4 9.3335V24.0002L8.23376 17.3335L12 15.3335L17.3333 20.0002L22 17.3335L26.2299 21.6447L28 24.0002Z" fill="white"/>
<path d="M10.1182 14.6667C11.2932 14.1518 12.6393 14.2053 13.7695 14.8122C14.2493 15.0698 14.6387 15.4487 15.0205 15.9001C15.3988 16.3474 15.8275 16.9371 16.3574 17.6657L16.7715 18.236C16.8518 18.3465 16.9032 18.4167 16.9434 18.4694C16.9624 18.4944 16.9754 18.5113 16.9844 18.5221C16.991 18.5302 16.995 18.5337 16.9961 18.5348C17.227 18.7778 17.6086 18.7951 17.8604 18.5739C17.8602 18.574 17.8642 18.5711 17.873 18.5622C17.883 18.5521 17.8977 18.5366 17.9189 18.5133C17.9637 18.4644 18.0213 18.3985 18.1113 18.2956C18.4504 17.9081 18.6852 17.6367 18.9092 17.4411C20.6412 15.9285 23.2703 16.101 24.79 17.8268C24.9865 18.05 25.1832 18.3497 25.4688 18.778L28.1455 22.7926L26.5215 23.8747L23.8447 19.861C23.5204 19.3745 23.4124 19.216 23.3252 19.1169C22.5158 18.1977 21.1148 18.1061 20.1924 18.9118C20.093 18.9987 19.9649 19.1419 19.5801 19.5817C19.4278 19.7558 19.2888 19.9182 19.1494 20.0407C18.11 20.9541 16.5342 20.8827 15.5811 19.8796C15.4532 19.745 15.3294 19.5705 15.1934 19.3835L14.7783 18.8141C14.231 18.0616 13.8515 17.5396 13.5303 17.1598C13.2128 16.7846 13.0108 16.6201 12.8467 16.5319C12.2447 16.2086 11.5272 16.1796 10.9014 16.4538C10.7307 16.5286 10.5157 16.6768 10.1689 17.026C9.81848 17.379 9.39842 17.8685 8.79297 18.5749L4.74121 23.3024L3.25879 22.0319L7.31152 17.3044C7.89774 16.6204 8.37143 16.0667 8.78418 15.651C9.20073 15.2316 9.6194 14.8852 10.1182 14.6667Z" fill="#00000E"/>
<path d="M8.35742 12.667V6C8.35742 5.46097 8.79398 5.02441 9.33301 5.02441C9.87204 5.02441 10.3086 5.46097 10.3086 6V12.667C10.3084 13.2059 9.87193 13.6426 9.33301 13.6426C8.79409 13.6426 8.3576 13.2059 8.35742 12.667ZM21.6904 12.667V6C21.6904 5.46108 22.1271 5.02459 22.666 5.02441C23.205 5.02441 23.6426 5.46097 23.6426 6V12.667C23.6424 13.2059 23.2049 13.6426 22.666 13.6426C22.1272 13.6424 21.6906 13.2058 21.6904 12.667Z" fill="#00000E"/>
<path d="M3.02441 22.6665V9.3335C3.02441 8.79447 3.46097 8.35791 4 8.35791C4.53903 8.35791 4.97559 8.79447 4.97559 9.3335V22.6665C4.97559 23.2055 4.53903 23.6431 4 23.6431C3.46097 23.6431 3.02441 23.2055 3.02441 22.6665ZM27.0244 22.6665V9.3335C27.0244 8.79447 27.461 8.35791 28 8.35791C28.539 8.35791 28.9756 8.79447 28.9756 9.3335V22.6665C28.9756 23.2055 28.539 23.6431 28 23.6431C27.461 23.6431 27.0244 23.2055 27.0244 22.6665Z" fill="#00000E"/>
<path d="M9.13003 5.05327C9.6561 4.93633 10.1779 5.26752 10.2951 5.7935C10.412 6.31969 10.08 6.84157 9.55386 6.95854C7.46053 7.4239 6.0453 8.07028 5.37026 8.69682C5.04781 8.99618 4.98544 9.20586 4.97768 9.3062C4.97114 9.39225 4.99078 9.56431 5.2355 9.83452C5.77549 10.4307 7.04912 11.0937 9.07143 11.5953C11.0454 12.0848 13.4692 12.3565 15.9796 12.358C18.4898 12.3594 20.916 12.0904 22.8957 11.6031C24.9232 11.1039 26.2078 10.442 26.757 9.84331C27.0072 9.57044 27.0293 9.39529 27.0236 9.30913C27.0169 9.21027 26.9574 9.00385 26.6408 8.70659C25.9751 8.08166 24.5685 7.43426 22.4796 6.96636C21.9538 6.8485 21.6227 6.32621 21.7404 5.80034C21.8582 5.27439 22.3804 4.94335 22.9064 5.06108C25.0896 5.55011 26.9201 6.29189 27.9767 7.28374C28.5204 7.79423 28.9208 8.43143 28.9708 9.17925C29.0216 9.93973 28.6973 10.6154 28.1955 11.1626C27.2397 12.2046 25.4751 12.9784 23.3624 13.4986C21.2021 14.0304 18.6152 14.3107 15.9787 14.3091C13.342 14.3076 10.7571 14.0244 8.60171 13.4898C6.49517 12.9673 4.73679 12.1911 3.78921 11.1451C3.29057 10.5945 2.97258 9.91567 3.0314 9.15483C3.08923 8.40863 3.49503 7.77407 4.04214 7.26616C5.10649 6.2782 6.94181 5.53975 9.13003 5.05327Z" fill="#00000E"/>
<path d="M4.97559 22.6665C4.97559 22.7798 5.04291 23.0487 5.52539 23.437C5.99884 23.818 6.75844 24.2139 7.82324 24.5688C9.94672 25.2767 12.8888 25.6909 16 25.6909C19.1112 25.6909 22.0533 25.2767 24.1768 24.5688C25.2416 24.2139 26.0012 23.818 26.4746 23.437C26.9571 23.0487 27.0244 22.7798 27.0244 22.6665H28.9756C28.9756 23.6141 28.4105 24.3843 27.6982 24.9575C26.977 25.5379 25.9793 26.0253 24.7939 26.4204C22.4165 27.2129 19.254 27.6421 16 27.6421C12.746 27.6421 9.58345 27.2129 7.20605 26.4204C6.02069 26.0253 5.023 25.5379 4.30176 24.9575C3.58949 24.3843 3.02441 23.6141 3.02441 22.6665H4.97559Z" fill="#00000E"/>
</svg>
