<svg width="32" height="32" viewBox="0 0 32 32" fill="none" xmlns="http://www.w3.org/2000/svg">
<path d="M8.59732 10.6259C9.01644 6.85376 12.2048 4 16.0002 4C19.7955 4 22.9839 6.85376 23.4031 10.6259L23.7388 13.6475C23.911 15.1976 24.4156 16.6923 25.218 18.0297L25.9887 19.3142C26.5142 20.19 26.777 20.628 26.808 20.9839C26.8636 21.6225 26.52 22.2293 25.9438 22.5101C25.6227 22.6667 25.112 22.6667 24.0906 22.6667H7.90983C6.88841 22.6667 6.37769 22.6667 6.05656 22.5101C5.48035 22.2293 5.13676 21.6225 5.1924 20.9839C5.22341 20.628 5.48617 20.19 6.01169 19.3142L6.7824 18.0297C7.58482 16.6923 8.08935 15.1976 8.26158 13.6475L8.59732 10.6259Z" fill="white"/>
<path d="M15.9999 3C20.3048 3 23.921 6.23706 24.3964 10.5156L24.7323 13.5371C24.8887 14.9443 25.3466 16.3016 26.0751 17.5156L26.8456 18.7998C27.1011 19.2257 27.3195 19.5878 27.4735 19.8877C27.6245 20.1818 27.7708 20.5214 27.8036 20.8975C27.895 21.9483 27.3299 22.947 26.3817 23.4092C26.0422 23.5746 25.6756 23.6227 25.3456 23.6445C25.0093 23.6668 24.5872 23.667 24.0907 23.667H7.90906C7.41257 23.667 6.99044 23.6668 6.65417 23.6445C6.32416 23.6227 5.95754 23.5746 5.61804 23.4092C4.66981 22.947 4.10475 21.9483 4.19616 20.8975C4.22893 20.5214 4.37527 20.1818 4.52624 19.8877C4.68021 19.5878 4.89863 19.2257 5.15417 18.7998L5.92468 17.5156C6.65311 16.3016 7.1111 14.9443 7.26745 13.5371L7.60339 10.5156C8.07879 6.23706 11.695 3 15.9999 3ZM15.9999 5C12.7141 5 9.95355 7.47063 9.5907 10.7363L9.25476 13.7578C9.06665 15.4508 8.51589 17.0833 7.63952 18.5439L6.86902 19.8291C6.59912 20.2789 6.42206 20.5738 6.30554 20.8008C6.18618 21.0333 6.18658 21.0907 6.18835 21.0703C6.16865 21.2964 6.29009 21.5118 6.49402 21.6113C6.47633 21.6028 6.52648 21.6322 6.78601 21.6494C7.04056 21.6663 7.38457 21.667 7.90906 21.667H24.0907C24.6152 21.667 24.9592 21.6663 25.2137 21.6494C25.4733 21.6322 25.5234 21.6028 25.5057 21.6113C25.7097 21.5118 25.8311 21.2964 25.8114 21.0703C25.8132 21.0907 25.8136 21.0333 25.6942 20.8008C25.5777 20.5738 25.4006 20.2789 25.1307 19.8291L24.3602 18.5439C23.4839 17.0833 22.9331 15.4508 22.745 13.7578L22.4091 10.7363C22.0462 7.47063 19.2857 5 15.9999 5Z" fill="#00000E"/>
<path d="M15 9H17C17.5523 9 18 9.44772 18 10C18 10.5523 17.5523 11 17 11H15C14.4477 11 14 10.5523 14 10C14 9.44772 14.4477 9 15 9Z" fill="#00000E"/>
<path d="M12.3463 15.2705C12.5528 13.4087 14.1264 12 15.9997 12C17.8729 12 19.4466 13.4087 19.6531 15.2705L19.8084 16.6706C19.8972 17.4712 20.3325 18.1926 20.9993 18.6444C21.3287 18.8676 21.0616 19.4394 20.6759 19.3418C19.2263 18.975 17.3805 18.5915 15.9997 18.5915C14.6189 18.5915 12.7731 18.975 11.3236 19.3418C10.9379 19.4394 10.6708 18.8676 11.0002 18.6444C11.6669 18.1926 12.1021 17.4712 12.1909 16.6707L12.3463 15.2705Z" fill="#00000E"/>
<path d="M14.4125 15.3991C14.5138 14.5994 15.1941 14 16.0001 14C16.8061 14 17.4864 14.5994 17.5877 15.3991L17.6278 15.7152C17.6686 16.0366 17.8554 16.3213 18.1341 16.4865C18.2664 16.5649 18.1734 16.7908 18.0233 16.7574C17.3993 16.6186 16.598 16.4718 16.0001 16.4718C15.4022 16.4718 14.601 16.6186 13.9769 16.7574C13.8269 16.7908 13.7339 16.5649 13.8661 16.4865C14.1448 16.3213 14.3316 16.0366 14.3724 15.7152L14.4125 15.3991Z" fill="#BBFD3B"/>
<path d="M12.8488 26.606C11.9448 25.7019 11.2949 24.4344 11 23L21 23C20.7051 24.4344 20.0552 25.7019 19.1512 26.606C18.2472 27.51 17.1395 28 16 28C14.8605 28 13.7528 27.51 12.8488 26.606Z" fill="#BBFD3B"/>
<path d="M16 29C14.562 29 13.2082 28.38 12.1416 27.3135C11.0799 26.2518 10.3489 24.7985 10.0205 23.2012L9.77344 22H22.2266L21.9795 23.2012C21.6511 24.7985 20.9201 26.2518 19.8584 27.3135C18.7918 28.38 17.438 29 16 29ZM16 27C16.8409 27 17.7029 26.6399 18.4443 25.8984C18.9421 25.4006 19.3599 24.7531 19.6611 24H12.3389C12.6401 24.7531 13.0579 25.4006 13.5557 25.8984C14.2971 26.6399 15.1591 27 16 27Z" fill="#00000E"/>
</svg>
