<svg width="32" height="32" viewBox="0 0 32 32" fill="none" xmlns="http://www.w3.org/2000/svg">
<path d="M6.66699 9.33317C6.66699 7.86041 7.8609 6.6665 9.33366 6.6665H20.0003C22.9458 6.6665 25.3337 9.05432 25.3337 11.9998V22.6665C25.3337 24.1393 24.1398 25.3332 22.667 25.3332H9.33366C7.8609 25.3332 6.66699 24.1393 6.66699 22.6665V9.33317Z" fill="white"/>
<mask id="mask0_16419_116765" style="mask-type:alpha" maskUnits="userSpaceOnUse" x="6" y="6" width="20" height="20">
<path d="M6.66699 9.33317C6.66699 7.86041 7.8609 6.6665 9.33366 6.6665H20.0003C22.9458 6.6665 25.3337 9.05432 25.3337 11.9998V22.6665C25.3337 24.1393 24.1398 25.3332 22.667 25.3332H9.33366C7.8609 25.3332 6.66699 24.1393 6.66699 22.6665V9.33317Z" fill="white"/>
</mask>
<g mask="url(#mask0_16419_116765)">
<path d="M16 22C16 18.6863 18.6863 16 22 16V16C25.3137 16 28 18.6863 28 22V22C28 25.3137 25.3137 28 22 28V28C18.6863 28 16 25.3137 16 22V22Z" fill="#BBFD3B"/>
<path d="M26 22C26 19.7909 24.2091 18 22 18C19.7909 18 18 19.7909 18 22C18 24.2091 19.7909 26 22 26V28C18.6863 28 16 25.3137 16 22C16 18.6863 18.6863 16 22 16C25.3137 16 28 18.6863 28 22C28 25.3137 25.3137 28 22 28V26C24.2091 26 26 24.2091 26 22Z" fill="black"/>
</g>
<path d="M10.667 12.6665C10.667 11.5619 11.5624 10.6665 12.667 10.6665V10.6665C13.7716 10.6665 14.667 11.5619 14.667 12.6665V12.6665C14.667 13.7711 13.7716 14.6665 12.667 14.6665V14.6665C11.5624 14.6665 10.667 13.7711 10.667 12.6665V12.6665Z" fill="#BBFD3B"/>
<path d="M13.334 12.6665L13.3203 12.5317C13.258 12.2281 12.989 11.9995 12.667 11.9995C12.2988 11.9995 12 12.2983 12 12.6665C12 13.0347 12.2988 13.3335 12.667 13.3335V14.6665C11.5624 14.6665 10.667 13.7711 10.667 12.6665C10.667 11.5619 11.5624 10.6665 12.667 10.6665C13.7716 10.6665 14.667 11.5619 14.667 12.6665C14.667 13.7711 13.7716 14.6665 12.667 14.6665V13.3335C12.989 13.3335 13.258 13.1049 13.3203 12.8013L13.334 12.6665Z" fill="black"/>
<path d="M6.66699 22.6665V9.3335C6.66699 7.95294 7.71608 6.81694 9.06055 6.68018L9.33398 6.6665H20C22.9454 6.6665 25.3338 9.05414 25.334 11.9995V22.6665L25.3203 22.939C25.1929 24.1942 24.1947 25.1925 22.9395 25.3198L22.667 25.3335V23.3335C23.0352 23.3335 23.334 23.0347 23.334 22.6665V11.9995C23.3338 10.1587 21.8408 8.6665 20 8.6665H9.33398C8.96579 8.6665 8.66699 8.96531 8.66699 9.3335V22.6665C8.66699 23.0347 8.9658 23.3335 9.33398 23.3335V25.3335L9.06055 25.3198C7.80564 25.1922 6.80802 24.194 6.68066 22.939L6.66699 22.6665ZM22.667 23.3335V25.3335H9.33398V23.3335H22.667Z" fill="#00000E"/>
<path d="M11 6.99951V2.6665C11 2.11422 11.4477 1.6665 12 1.6665C12.5523 1.6665 13 2.11422 13 2.6665V6.99951C13 7.5518 12.5523 7.99951 12 7.99951C11.4477 7.99951 11 7.5518 11 6.99951Z" fill="#00000E"/>
<path d="M11 29.333V25C11 24.4477 11.4477 24 12 24C12.5523 24 13 24.4477 13 25V29.333C13 29.8853 12.5523 30.333 12 30.333C11.4477 30.333 11 29.8853 11 29.333Z" fill="#00000E"/>
<path d="M19 29.333V25C19 24.4477 19.4477 24 20 24C20.5523 24 21 24.4477 21 25V29.333C21 29.8853 20.5523 30.333 20 30.333C19.4477 30.333 19 29.8853 19 29.333Z" fill="#00000E"/>
<path d="M29.333 21L25 21C24.4477 21 24 20.5523 24 20C24 19.4477 24.4477 19 25 19L29.333 19C29.8853 19 30.333 19.4477 30.333 20C30.333 20.5523 29.8853 21 29.333 21Z" fill="#00000E"/>
<path d="M7 21L2.66699 21C2.11471 21 1.66699 20.5523 1.66699 20C1.66699 19.4477 2.11471 19 2.66699 19L7 19C7.55228 19 8 19.4477 8 20C8 20.5523 7.55228 21 7 21Z" fill="#00000E"/>
<path d="M7 13L2.66699 13C2.11471 13 1.66699 12.5523 1.66699 12C1.66699 11.4477 2.11471 11 2.66699 11L7 11C7.55228 11 8 11.4477 8 12C8 12.5523 7.55228 13 7 13Z" fill="#00000E"/>
<path d="M27.334 11.9995C27.3339 11.0367 27.1438 10.0834 26.7754 9.19385C26.4069 8.30413 25.8665 7.49493 25.1855 6.81396C24.5047 6.13318 23.6962 5.59357 22.8066 5.2251C21.9169 4.85656 20.963 4.6665 20 4.6665C19.4479 4.66633 19 4.21868 19 3.6665C19 3.11433 19.4479 2.66668 20 2.6665C21.2257 2.6665 22.4399 2.9084 23.5723 3.37744C24.7044 3.84642 25.7331 4.53347 26.5996 5.3999C27.4663 6.26658 28.154 7.29585 28.623 8.42822C29.092 9.56049 29.3339 10.774 29.334 11.9995C29.334 12.5517 28.8861 12.9993 28.334 12.9995C27.7817 12.9995 27.334 12.5518 27.334 11.9995Z" fill="#00000E"/>
</svg>
