<svg width="24" height="24" viewBox="0 0 24 24" fill="none" xmlns="http://www.w3.org/2000/svg">
<path d="M4.5 20L2 8.5L7 11L12 4L17 11L22 8.5L20.75 14.25L19.5 20H4.5Z" fill="white"/>
<path d="M11.9996 3.25C12.2418 3.25 12.4691 3.36736 12.6099 3.56445L17.2369 10.042L21.6646 7.8291C21.9228 7.70022 22.2317 7.73114 22.4595 7.9082C22.6875 8.08535 22.7933 8.3771 22.732 8.65918L20.232 20.1592C20.157 20.5039 19.8524 20.75 19.4996 20.75H4.49957C4.14676 20.75 3.8421 20.5039 3.76715 20.1592L1.26715 8.65918C1.20585 8.3771 1.31169 8.08535 1.53961 7.9082C1.76747 7.73114 2.07639 7.70021 2.33454 7.8291L6.76129 10.042L11.3892 3.56445C11.53 3.36736 11.7574 3.25 11.9996 3.25ZM7.60993 11.4355C7.3955 11.7357 6.99463 11.8357 6.66461 11.6709L3.06403 9.87012L5.10309 19.25H18.8961L20.9341 9.87012L17.3345 11.6709C17.0045 11.8357 16.6036 11.7357 16.3892 11.4355L11.9996 5.29004L7.60993 11.4355Z" fill="#00000E"/>
<path d="M9 19.4401L3 9.6001L5 20.4001H9V19.4401Z" fill="#BBFD3B"/>
<path d="M16.2 19.4401L21 9.6001L19.4 20.4001H16.2V19.4401Z" fill="#BBFD3B"/>
<path d="M12.0006 16.9001C13.326 16.9001 14.4006 15.8256 14.4006 14.5001C14.4006 13.1746 13.326 12.1001 12.0006 12.1001C10.6751 12.1001 9.60059 13.1746 9.60059 14.5001C9.60059 15.8256 10.6751 16.9001 12.0006 16.9001Z" fill="#BBFD3B"/>
<path d="M13.6504 14.5005C13.6504 13.5894 12.912 12.8503 12.001 12.8501C11.0897 12.8501 10.3506 13.5892 10.3506 14.5005C10.3508 15.4116 11.0899 16.1499 12.001 16.1499C12.9119 16.1497 13.6502 15.4114 13.6504 14.5005ZM15.1504 14.5005C15.1502 16.2399 13.7403 17.6497 12.001 17.6499C10.2614 17.6499 8.8508 16.24 8.85059 14.5005C8.85059 12.7608 10.2613 11.3501 12.001 11.3501C13.7405 11.3503 15.1504 12.7609 15.1504 14.5005Z" fill="#00000E"/>
<path d="M11.9996 3.25C12.2418 3.25 12.4691 3.36736 12.6099 3.56445L17.2369 10.042L21.6646 7.8291C21.9228 7.70022 22.2317 7.73114 22.4595 7.9082C22.6875 8.08535 22.7933 8.3771 22.732 8.65918L20.232 20.1592C20.157 20.5039 19.8524 20.75 19.4996 20.75H4.49957C4.14676 20.75 3.8421 20.5039 3.76715 20.1592L1.26715 8.65918C1.20585 8.3771 1.31169 8.08535 1.53961 7.9082C1.76747 7.73114 2.07639 7.70021 2.33454 7.8291L6.76129 10.042L11.3892 3.56445C11.53 3.36736 11.7574 3.25 11.9996 3.25ZM7.60993 11.4355C7.3955 11.7357 6.99463 11.8357 6.66461 11.6709L3.06403 9.87012L5.10309 19.25H18.8961L20.9341 9.87012L17.3345 11.6709C17.0045 11.8357 16.6036 11.7357 16.3892 11.4355L11.9996 5.29004L7.60993 11.4355Z" fill="#00000E"/>
</svg>
