<svg width="32" height="32" viewBox="0 0 32 32" fill="none" xmlns="http://www.w3.org/2000/svg">
<path d="M5.5 7C5.5 5.34315 6.84315 4 8.5 4H23.5C25.1569 4 26.5 5.34315 26.5 7V25C26.5 26.6569 25.1569 28 23.5 28H8.5C6.84315 28 5.5 26.6569 5.5 25V7Z" fill="white"/>
<path d="M23.5 26V28H8.5V26H23.5ZM24.5 25V7C24.5 6.44772 24.0523 6 23.5 6H8.5C7.94772 6 7.5 6.44772 7.5 7V25C7.5 25.5523 7.94772 26 8.5 26V28L8.3457 27.9961C6.76055 27.9158 5.5 26.6051 5.5 25V7C5.5 5.34315 6.84315 4 8.5 4H23.5C25.1569 4 26.5 5.34315 26.5 7V25C26.5 26.6051 25.2394 27.9158 23.6543 27.9961L23.5 28V26C24.0523 26 24.5 25.5523 24.5 25Z" fill="#00000E"/>
<path d="M18.4431 8.14614C18.6383 7.26297 18.8924 6.72705 19.1707 6.72705C19.4743 6.72705 19.749 7.36378 19.9501 8.39434C20.7767 8.58654 21.2731 8.83243 21.2731 9.10069C21.2731 9.34653 20.8544 9.57408 20.1476 9.75802C20.2336 10.5858 20.2832 11.5757 20.2832 12.5449C20.2832 13.5142 20.2372 14.428 20.157 15.2322H20.1576C20.8586 15.4162 21.2731 15.6425 21.2731 15.8872C21.2731 16.1531 20.7843 16.3972 19.9701 16.5888C19.7679 17.6824 19.4843 18.3634 19.1707 18.3634C18.8824 18.3634 18.6188 17.788 18.4213 16.8447C17.5529 16.9437 16.5848 17.0003 15.4552 17.0003C14.3256 17.0003 13.2726 16.939 12.38 16.8323C12.1819 17.7827 11.9177 18.3634 11.6277 18.3634C11.3111 18.3634 11.0257 17.6707 10.8229 16.5605C10.0789 16.3736 9.63672 16.1401 9.63672 15.8872C9.63672 15.6555 10.0081 15.4397 10.6437 15.2617C10.5618 14.4504 10.5152 13.5667 10.5152 12.5449C10.5152 11.5232 10.5659 10.564 10.6543 9.72915C10.0129 9.55051 9.63674 9.33415 9.63672 9.10069C9.63672 8.8454 10.0871 8.61015 10.843 8.42267C11.0446 7.375 11.3217 6.72705 11.6283 6.72705C11.9077 6.72706 12.163 7.26828 12.3587 8.15911C13.2555 8.05063 14.3627 7.98812 15.4552 7.98812C16.5477 7.98812 17.5694 8.04591 18.4431 8.14614Z" fill="#BBFD3B"/>
<path d="M18.7832 12.5454C18.7832 11.6223 18.7354 10.6843 18.6553 9.91357L18.6299 9.67725L18.2725 9.63623C17.4619 9.54325 16.4973 9.48779 15.4551 9.48779C14.4132 9.4878 13.367 9.54781 12.5391 9.64795L12.166 9.69287L12.1455 9.88721C12.0632 10.6646 12.0156 11.5714 12.0156 12.5454C12.0156 13.5201 12.0592 14.3532 12.1357 15.1108L12.1543 15.2944L12.5576 15.3433C13.3834 15.442 14.3767 15.5005 15.4551 15.5005V17.0005L14.624 16.9888C13.8093 16.9665 13.0494 16.9126 12.3799 16.8325C12.1818 17.7825 11.9179 18.3634 11.6279 18.3638L11.5684 18.355C11.2756 18.2743 11.0133 17.6003 10.8232 16.5601C10.0792 16.3732 9.63672 16.1401 9.63672 15.8872C9.63673 15.6555 10.008 15.4393 10.6436 15.2612C10.5821 14.653 10.5404 14.004 10.5234 13.2866L10.5156 12.5454C10.5156 11.5237 10.5659 10.5638 10.6543 9.729C10.0133 9.55047 9.63716 9.33438 9.63672 9.10107C9.63672 8.8458 10.087 8.60984 10.8428 8.42236C11.0443 7.37524 11.3215 6.72754 11.6279 6.72705C11.9073 6.72706 12.1627 7.26814 12.3584 8.15869C13.2551 8.05021 14.3626 7.9878 15.4551 7.98779C16.5475 7.98779 17.5696 8.04577 18.4434 8.146C18.6385 7.26293 18.8926 6.72705 19.1709 6.72705C19.4744 6.72739 19.7492 7.36391 19.9502 8.39404C20.7767 8.58624 21.2734 8.83282 21.2734 9.10107L21.2686 9.14697C21.2196 9.37509 20.8098 9.58594 20.1475 9.7583C20.2335 10.586 20.2832 11.5763 20.2832 12.5454L20.2744 13.2603C20.2577 13.9639 20.2174 14.6288 20.1572 15.2319L20.4072 15.3032C20.9559 15.4731 21.2734 15.6732 21.2734 15.8872L21.2676 15.937C21.2107 16.1836 20.7329 16.4088 19.9697 16.5884C19.7676 17.6817 19.4845 18.3634 19.1709 18.3638L19.1172 18.3569C18.8498 18.2906 18.6061 17.7289 18.4209 16.8442C17.5526 16.9433 16.5845 17.0005 15.4551 17.0005V15.5005C16.5337 15.5005 17.4447 15.446 18.251 15.354L18.6406 15.3091L18.6641 15.0835C18.7389 14.3327 18.7832 13.4687 18.7832 12.5454Z" fill="#00000E"/>
<path d="M8.5 24.25C8.5 23.8358 8.83579 23.5 9.25 23.5H21.25C21.6642 23.5 22 23.8358 22 24.25V24.25C22 24.6642 21.6642 25 21.25 25H9.25C8.83579 25 8.5 24.6642 8.5 24.25V24.25Z" fill="#00000E"/>
<path d="M8.5 21.25C8.5 20.8358 8.83579 20.5 9.25 20.5H16.75C17.1642 20.5 17.5 20.8358 17.5 21.25V21.25C17.5 21.6642 17.1642 22 16.75 22H9.25C8.83579 22 8.5 21.6642 8.5 21.25V21.25Z" fill="#00000E"/>
</svg>
