<svg width="24" height="24" viewBox="0 0 24 24" fill="none" xmlns="http://www.w3.org/2000/svg">
<path d="M4.9502 21.7H20.3502V9.6H14.3002V3H4.9502V21.7Z" fill="white"/>
<path d="M4.9502 21.7001H20.3502V9.6001C20.3502 9.6001 18.2631 10.8369 17.0502 11.8001C15.3851 13.1224 15.0629 14.6247 13.2002 15.6501C10.3715 17.2072 4.9502 16.2001 4.9502 16.2001V21.7001Z" fill="#BBFD3B"/>
<path d="M14.2998 2C14.8521 2 15.2998 2.44772 15.2998 3V8.59961H20.3506C20.9026 8.59982 21.3504 9.04763 21.3506 9.59961V21.7002C21.3505 22.2523 20.9026 22.7 20.3506 22.7002H4.9502C4.39798 22.7002 3.9503 22.2524 3.9502 21.7002V3C3.9502 2.44772 4.39791 2 4.9502 2H14.2998ZM5.9502 20.7002H19.3506V10.5996H14.2998C13.7477 10.5994 13.2998 10.1518 13.2998 9.59961V4H5.9502V20.7002Z" fill="#00000E"/>
<path d="M13.6241 2.26279C14.0312 1.88964 14.664 1.91721 15.0372 2.32431L21.087 8.92392C21.4602 9.33102 21.4326 9.96381 21.0255 10.337C20.6184 10.7102 19.9856 10.6826 19.6124 10.2755L13.5626 3.67587C13.1894 3.26875 13.217 2.63597 13.6241 2.26279Z" fill="#00000E"/>
<path d="M10.4502 10.7998C11.0024 10.7999 11.4502 11.2476 11.4502 11.7998C11.4502 12.352 11.0024 12.7997 10.4502 12.7998H8.25C7.69772 12.7998 7.25 12.3521 7.25 11.7998C7.25 11.2475 7.69772 10.7998 8.25 10.7998H10.4502Z" fill="#00000E"/>
<path d="M14.8496 15.2002C15.4019 15.2002 15.8496 15.6479 15.8496 16.2002C15.8496 16.7525 15.4019 17.2002 14.8496 17.2002H8.25C7.69772 17.2002 7.25 16.7525 7.25 16.2002C7.25 15.6479 7.69772 15.2002 8.25 15.2002H14.8496Z" fill="#00000E"/>
</svg>
