<svg width="23" height="20" viewBox="0 0 23 20" fill="none" xmlns="http://www.w3.org/2000/svg">
<path d="M16.1522 0.799805H6.24742L0.799805 9.71409L6.24742 18.6284H16.1522L21.5998 9.71409L16.1522 0.799805Z" fill="white"/>
<path d="M16.1524 0L16.256 0.00683594C16.494 0.0379307 16.708 0.174829 16.8351 0.382812L22.2823 9.29688C22.4388 9.5529 22.4387 9.8748 22.2823 10.1309L16.8351 19.0459C16.6897 19.2835 16.431 19.4287 16.1524 19.4287H6.24717C5.96866 19.4286 5.70983 19.2835 5.56455 19.0459L0.117289 10.1309C-0.039039 9.87481 -0.0391534 9.55287 0.117289 9.29688L5.56455 0.382812C5.70982 0.145109 5.96861 0.000122395 6.24717 0H16.1524ZM1.73643 9.71387L6.69541 17.8281H15.7042L20.6622 9.71387L15.7042 1.59961H6.69541L1.73643 9.71387Z" fill="#00000E"/>
<path d="M6.74316 12.6854L11.2003 5.25684L15.6575 12.6854H6.74316Z" fill="#BBFD3B"/>
<path d="M11.2001 4.45703C11.4811 4.45703 11.7421 4.60474 11.8866 4.8457L16.3437 12.2734C16.4919 12.5205 16.4953 12.8284 16.3534 13.0791C16.2114 13.3299 15.9454 13.4854 15.6572 13.4854H6.74309C6.45487 13.4854 6.18881 13.3299 6.0468 13.0791C5.90503 12.8284 5.90934 12.5204 6.05754 12.2734L10.5146 4.8457L10.5741 4.75977C10.7247 4.57013 10.9543 4.45707 11.2001 4.45703ZM8.1552 11.8857H14.245L11.2001 6.81055L8.1552 11.8857Z" fill="#00000E"/>
</svg>
