<svg width="24" height="24" viewBox="0 0 24 24" fill="none" xmlns="http://www.w3.org/2000/svg">
<path fill-rule="evenodd" clip-rule="evenodd" d="M2.5 5C2.5 4.44771 2.94771 4 3.5 4H20.5C21.0523 4 21.5 4.44771 21.5 5V19C21.5 19.5523 21.0523 20 20.5 20H3.5C2.94771 20 2.5 19.5523 2.5 19V5Z" fill="white"/>
<path d="M3.5 5V19H20.5V5H3.5ZM22.5 19C22.5 20.1046 21.6046 21 20.5 21H3.5C2.39544 21 1.5 20.1046 1.5 19V5C1.5 3.89543 2.39543 3 3.5 3H20.5C21.6046 3 22.5 3.89544 22.5 5V19Z" fill="#00000E"/>
<path d="M7.25 8C7.11192 8 7 8.11192 7 8.25C7 8.38808 7.11192 8.5 7.25 8.5C7.38808 8.5 7.5 8.38808 7.5 8.25C7.5 8.11192 7.38808 8 7.25 8ZM9 8.25C9 9.21648 8.21648 10 7.25 10C6.28352 10 5.5 9.21648 5.5 8.25C5.5 7.28352 6.28352 6.5 7.25 6.5C8.21648 6.5 9 7.28352 9 8.25Z" fill="#00000E"/>
<path d="M7.5 12L10 14L13 10.5L21.5 17V19C21.5 19.5523 21.0523 20 20.5 20H3.5C2.94771 20 2.5 19.5523 2.5 19V17L7.5 12Z" fill="#BBFD3B"/>
<path d="M20.5 17.493L13.1426 11.868L10.7588 14.6502C10.4079 15.0595 9.79596 15.1178 9.375 14.7811L7.57324 13.3397L3.5 17.4139V18.9998H20.5V17.493ZM22.5 18.9998C22.5 20.1044 21.6046 20.9998 20.5 20.9998H3.5C2.39544 20.9998 1.5 20.1044 1.5 18.9998V16.9998C1.5 16.7346 1.60543 16.4803 1.79297 16.2928L6.79297 11.2928L6.86328 11.2293C7.22464 10.9302 7.75201 10.9202 8.125 11.2186L9.87012 12.6151L12.2412 9.84943L12.3086 9.77716C12.6606 9.4397 13.2124 9.40377 13.6074 9.70587L22.1074 16.2059C22.3547 16.3951 22.5 16.6884 22.5 16.9998V18.9998Z" fill="#00000E"/>
</svg>
