<svg width="24" height="24" viewBox="0 0 24 24" fill="none" xmlns="http://www.w3.org/2000/svg">
<path d="M16.001 16.6223C16.1763 16.0986 16.7439 15.8161 17.2676 15.9914C17.9593 16.223 18.5909 16.5212 19.0703 16.9006C19.539 17.2715 20 17.8375 20 18.5969C19.9998 19.3562 19.5389 19.9224 19.0703 20.2932C18.591 20.6724 17.9591 20.9699 17.2676 21.2014C15.8735 21.6681 14.0109 21.9397 12 21.9397C9.98908 21.9397 8.12651 21.6681 6.73242 21.2014C6.04089 20.9699 5.40901 20.6724 4.92969 20.2932C4.49029 19.9455 4.05719 19.4259 4.00488 18.7366L4 18.5969L4.00488 18.4563C4.05726 17.7671 4.49036 17.2483 4.92969 16.9006C5.40907 16.5212 6.0407 16.223 6.73242 15.9914C7.25611 15.8161 7.8227 16.0986 7.99805 16.6223C8.17331 17.1459 7.8916 17.7124 7.36816 17.8879C6.79328 18.0804 6.39987 18.2878 6.1709 18.469C6.10315 18.5226 6.06015 18.5651 6.0332 18.5959C6.06012 18.6268 6.10263 18.6708 6.1709 18.7248C6.39992 18.906 6.79356 19.1126 7.36816 19.3049C8.50756 19.6863 10.1451 19.9397 12 19.9397C13.8549 19.9397 15.4924 19.6863 16.6318 19.3049C17.2064 19.1126 17.6001 18.906 17.8291 18.7248C17.897 18.6711 17.9389 18.6268 17.9658 18.5959C17.9388 18.5651 17.8965 18.5223 17.8291 18.469C17.6001 18.2878 17.2067 18.0804 16.6318 17.8879C16.1085 17.7125 15.8258 17.1458 16.001 16.6223Z" fill="#00000E"/>
<path d="M12 17.5C12 17.5 18.5 13.252 18.5 8.3409C18.5 4.83892 15.5898 2 12 2C8.41015 2 5.5 4.83892 5.5 8.3409C5.5 13.252 12 17.5 12 17.5Z" fill="white"/>
<path d="M12.5469 18.3369C12.2145 18.5541 11.7855 18.5541 11.4531 18.3369L12 17.5L12.5469 18.3369ZM17.5 8.34082C17.5 5.41438 15.061 3 12 3C8.93896 3 6.50004 5.41438 6.5 8.34082C6.5 10.3846 7.87925 12.4281 9.46777 14.0664C10.2396 14.8624 11.0158 15.5157 11.5996 15.9707C11.747 16.0856 11.8814 16.1876 12 16.2754C12.1186 16.1876 12.253 16.0856 12.4004 15.9707C12.9842 15.5157 13.7604 14.8624 14.5322 14.0664C16.1207 12.4281 17.5 10.3846 17.5 8.34082ZM19.5 8.34082C19.5 11.2081 17.6292 13.7445 15.9678 15.458C15.1149 16.3376 14.2657 17.053 13.6309 17.5479C13.3126 17.7959 13.0452 17.9905 12.8564 18.124C12.7622 18.1907 12.6874 18.2426 12.6348 18.2783C12.6085 18.2961 12.5879 18.3105 12.5732 18.3203C12.5659 18.3252 12.56 18.3292 12.5557 18.332L12.5479 18.3359V18.3369C12.5476 18.3371 12.5471 18.3371 12 17.5C11.4529 18.3371 11.4524 18.3371 11.4521 18.3369V18.3359L11.4443 18.332C11.44 18.3292 11.4341 18.3252 11.4268 18.3203C11.4121 18.3105 11.3915 18.2961 11.3652 18.2783C11.3126 18.2426 11.2378 18.1907 11.1436 18.124C10.9548 17.9905 10.6874 17.7959 10.3691 17.5479C9.73425 17.053 8.8851 16.3376 8.03223 15.458C6.37076 13.7445 4.5 11.2081 4.5 8.34082C4.50004 4.26338 7.8814 1 12 1C16.1186 1 19.5 4.26338 19.5 8.34082Z" fill="#00000E"/>
<path d="M12 17.4999C12 17.4999 18.5 13.2519 18.5 8.34082C18.5 8.34082 15.5898 13 12 13C8.41015 13 7.5 12 7.5 12C7.5 16.9111 12 17.4999 12 17.4999Z" fill="#BBFD3B"/>
<path d="M12 11C13.3807 11 14.5 9.8807 14.5 8.5C14.5 7.1193 13.3807 6 12 6C10.6193 6 9.5 7.1193 9.5 8.5C9.5 9.8807 10.6193 11 12 11Z" fill="#BBFD3B"/>
<path d="M13.75 8.5C13.75 7.53351 12.9665 6.75 12 6.75C11.0335 6.75 10.25 7.53351 10.25 8.5C10.25 9.46649 11.0335 10.25 12 10.25C12.9665 10.25 13.75 9.46649 13.75 8.5ZM15.25 8.5C15.25 10.2949 13.7949 11.75 12 11.75C10.2051 11.75 8.75 10.2949 8.75 8.5C8.75 6.70509 10.2051 5.25 12 5.25C13.7949 5.25 15.25 6.70509 15.25 8.5Z" fill="#00000E"/>
<path d="M12.5469 18.3369C12.2145 18.5541 11.7855 18.5541 11.4531 18.3369L12 17.5L12.5469 18.3369ZM17.5 8.34082C17.5 5.41438 15.061 3 12 3C8.93896 3 6.50004 5.41438 6.5 8.34082C6.5 10.3846 7.87925 12.4281 9.46777 14.0664C10.2396 14.8624 11.0158 15.5157 11.5996 15.9707C11.747 16.0856 11.8814 16.1876 12 16.2754C12.1186 16.1876 12.253 16.0856 12.4004 15.9707C12.9842 15.5157 13.7604 14.8624 14.5322 14.0664C16.1207 12.4281 17.5 10.3846 17.5 8.34082ZM19.5 8.34082C19.5 11.2081 17.6292 13.7445 15.9678 15.458C15.1149 16.3376 14.2657 17.053 13.6309 17.5479C13.3126 17.7959 13.0452 17.9905 12.8564 18.124C12.7622 18.1907 12.6874 18.2426 12.6348 18.2783C12.6085 18.2961 12.5879 18.3105 12.5732 18.3203C12.5659 18.3252 12.56 18.3292 12.5557 18.332L12.5479 18.3359V18.3369C12.5476 18.3371 12.5471 18.3371 12 17.5C11.4529 18.3371 11.4524 18.3371 11.4521 18.3369V18.3359L11.4443 18.332C11.44 18.3292 11.4341 18.3252 11.4268 18.3203C11.4121 18.3105 11.3915 18.2961 11.3652 18.2783C11.3126 18.2426 11.2378 18.1907 11.1436 18.124C10.9548 17.9905 10.6874 17.7959 10.3691 17.5479C9.73425 17.053 8.8851 16.3376 8.03223 15.458C6.37076 13.7445 4.5 11.2081 4.5 8.34082C4.50004 4.26338 7.8814 1 12 1C16.1186 1 19.5 4.26338 19.5 8.34082Z" fill="#00000E"/>
</svg>
