<svg width="24" height="24" viewBox="0 0 24 24" fill="none" xmlns="http://www.w3.org/2000/svg">
<path d="M22 5.9C22 4.57452 20.9255 3.5 19.6 3.5H4.4C3.07452 3.5 2 4.57452 2 5.9V16.75C2 17.7165 2.7835 18.5 3.75 18.5H4.54508C5.07247 18.5 5.5 18.9275 5.5 19.4549C5.5 20.1648 6.24704 20.6265 6.88197 20.309L9.99325 18.7534C10.3265 18.5867 10.694 18.5 11.0666 18.5H19.6C20.9255 18.5 22 17.4255 22 16.1V5.9Z" fill="white"/>
<path d="M11.0664 18.5C10.6939 18.5 10.3263 18.5864 9.99316 18.7529L6.88184 20.3086C6.24696 20.626 5.50011 20.1649 5.5 19.4551C5.5 18.9277 5.07231 18.5 4.54492 18.5V17.25C5.60698 17.25 6.49279 18.0011 6.70215 19.001L9.43457 17.6357C9.94132 17.3824 10.4999 17.25 11.0664 17.25V18.5ZM19.5996 17.25V18.5H11.0664V17.25H19.5996ZM20.75 16.0996V5.90039C20.75 5.26526 20.2347 4.75 19.5996 4.75H4.40039C3.76526 4.75 3.25 5.26526 3.25 5.90039V16.75C3.25 17.0261 3.47386 17.25 3.75 17.25V18.5C2.84383 18.5 2.0983 17.8113 2.00879 16.9287L2 16.75V5.90039C2 4.65787 2.94425 3.63576 4.1543 3.5127L4.40039 3.5H19.5996C20.9251 3.5 22 4.57491 22 5.90039V16.0996C22 17.4251 20.9251 18.5 19.5996 18.5V17.25C20.2347 17.25 20.75 16.7347 20.75 16.0996ZM4.54492 17.25V18.5H3.75V17.25H4.54492Z" fill="#00000E"/>
<path d="M21.5 12.8003V17.3003H10.5L6.59961 19.8001L5.5 17.3003L2 16.8003V11.8003C2 11.8003 7.5 15.0084 7.5 16.3003C7.5 16.9945 13.3827 15.1001 15.5996 15.6001C17.8165 16.1001 21.5 12.8003 21.5 12.8003Z" fill="#BBFD3B"/>
<path d="M11.0664 18.5C10.6939 18.5 10.3263 18.5864 9.99316 18.7529L6.88184 20.3086C6.24696 20.626 5.50011 20.1649 5.5 19.4551C5.5 18.9277 5.07231 18.5 4.54492 18.5V17C5.61568 17 6.52379 17.6865 6.85938 18.6426L9.32227 17.4121C9.86375 17.1414 10.461 17 11.0664 17V18.5ZM19.5996 17V18.5H11.0664V17H19.5996ZM20.5 16.0996V5.90039C20.5 5.40333 20.0967 5 19.5996 5H4.40039C3.90333 5 3.5 5.40333 3.5 5.90039V16.75C3.5 16.8881 3.61193 17 3.75 17V18.5C2.84383 18.5 2.0983 17.8113 2.00879 16.9287L2 16.75V5.90039C2 4.65787 2.94425 3.63576 4.1543 3.5127L4.40039 3.5H19.5996C20.9251 3.5 22 4.57491 22 5.90039V16.0996C22 17.4251 20.9251 18.5 19.5996 18.5V17C20.0967 17 20.5 16.5967 20.5 16.0996ZM4.54492 17V18.5H3.75V17H4.54492Z" fill="#00000E"/>
<path d="M14.2998 8.5V8C14.2998 7.33726 14.8373 6.7998 15.5 6.7998C16.1627 6.7998 16.7002 7.33726 16.7002 8V8.5C16.7002 9.16274 16.1627 9.7002 15.5 9.7002C14.8373 9.7002 14.2998 9.16274 14.2998 8.5Z" fill="#00000E"/>
<path d="M7.75 8.5V8C7.75 7.58579 8.08579 7.25 8.5 7.25C8.91421 7.25 9.25 7.58579 9.25 8V8.5C9.25 8.91421 8.91421 9.25 8.5 9.25C8.08579 9.25 7.75 8.91421 7.75 8.5Z" fill="#00000E"/>
<path d="M9.17088 12.165C9.17473 12.1721 9.183 12.1859 9.19432 12.2051C9.217 12.2435 9.25452 12.3039 9.3076 12.3789C9.41439 12.5296 9.58015 12.7346 9.81053 12.9394C10.2652 13.3436 10.9696 13.75 12 13.75C13.0304 13.75 13.7348 13.3436 14.1894 12.9394C14.4198 12.7346 14.5856 12.5296 14.6924 12.3789C14.7454 12.3039 14.783 12.2435 14.8056 12.2051C14.817 12.1859 14.8252 12.1721 14.8291 12.165L14.8301 12.1631L14.8291 12.165C15.0143 11.7947 15.4645 11.6441 15.8349 11.8291C16.2053 12.0143 16.3558 12.4645 16.1709 12.8349L15.5 12.5C16.156 12.828 16.1707 12.8354 16.1709 12.8359L16.1689 12.8388C16.1684 12.8398 16.1675 12.8407 16.167 12.8418C16.1656 12.8445 16.164 12.8479 16.1621 12.8515C16.1582 12.859 16.1535 12.8688 16.1474 12.8799C16.1354 12.902 16.1194 12.9314 16.0986 12.9668C16.0568 13.0376 15.9966 13.1336 15.917 13.2461C15.7582 13.4703 15.5175 13.7654 15.1855 14.0605C14.5152 14.6564 13.4695 15.25 12 15.25C10.5305 15.25 9.48478 14.6564 8.81443 14.0605C8.48242 13.7654 8.2418 13.4703 8.08299 13.2461C8.00332 13.1336 7.94311 13.0376 7.90135 12.9668C7.88053 12.9314 7.86452 12.902 7.85252 12.8799C7.84651 12.8688 7.84173 12.859 7.83787 12.8515C7.83596 12.8479 7.83437 12.8445 7.83299 12.8418C7.83241 12.8407 7.83152 12.8398 7.83103 12.8388L7.83006 12.8369C7.82989 12.8366 7.82916 12.8354 8.49998 12.5L7.82908 12.8349C7.64414 12.4645 7.79466 12.0143 8.16502 11.8291C8.53543 11.6441 8.98472 11.7947 9.1699 12.165H9.17088Z" fill="#00000E"/>
</svg>
