<svg width="32" height="32" viewBox="0 0 32 32" fill="none" xmlns="http://www.w3.org/2000/svg">
<path d="M22.1463 5.05738H22.1424C19.8276 5.18868 17.311 6.57598 15.2284 8.93614L15.0513 9.13482L14.9143 9.30188C14.214 10.1488 13.5972 11.0681 13.0718 12.0449L13.0258 12.1299L12.8135 12.546C12.6914 12.7859 12.5752 13.0302 12.4661 13.2795L12.4651 13.2824C12.1481 13.9955 11.8786 14.7313 11.6589 15.4838L11.5914 15.7121L11.5258 15.9671C10.7979 18.7644 10.838 21.5353 11.6501 23.7345C12.3325 25.5824 13.4944 26.88 14.9848 27.5342C16.9639 28.4046 19.3312 28.0428 21.5886 26.6476C23.8428 25.2542 25.9377 22.8544 27.3069 19.7708C28.9183 16.1424 29.1959 12.2311 28.1219 9.31571C27.4399 7.46934 26.2794 6.17315 24.7902 5.51801C23.953 5.15607 23.049 4.99873 22.1463 5.05738Z" fill="white"/>
<path d="M15.8477 20.878C15.3445 19.8066 15.3402 18.3686 15.5919 16.9794L15.6303 16.7682C15.7471 16.2144 15.9187 15.655 16.1515 15.1061C16.22 14.9428 16.2914 14.7822 16.3659 14.6269L16.4755 14.4065C16.8602 13.6541 17.3177 12.9777 17.8274 12.4003L17.9783 12.23C18.3747 11.8045 18.802 11.4407 19.2497 11.15C20.5288 10.32 21.9255 10.0975 23.1858 10.5261C24.1008 10.8354 24.82 11.5073 25.2704 12.4658C25.9974 14.0151 25.9279 16.1377 25.0804 18.1446C24.3972 19.7658 23.2929 21.1369 21.9715 22.0021C21.1963 22.511 20.2826 22.9051 19.515 22.9843C18.9667 23.0409 18.4319 22.9866 17.9323 22.8177C17.0173 22.5084 16.2982 21.8365 15.8477 20.878Z" fill="#BBFD3B"/>
<path d="M18.7055 10.3112C20.1985 9.34256 21.9118 9.03613 23.5075 9.57874L23.5066 9.57976C24.6323 9.96061 25.507 10.7563 26.0673 11.8235L26.1755 12.0397L26.1756 12.0407C27.0538 13.9122 26.9277 16.3399 26.002 18.5326C25.2509 20.3149 24.0251 21.8505 22.5187 22.8371L22.5197 22.838C21.6683 23.3968 20.6005 23.877 19.617 23.9784C18.9367 24.0485 18.2569 23.983 17.6116 23.7648C16.4855 23.3841 15.6104 22.5876 15.0499 21.5202L14.9426 21.3029C14.3088 19.9537 14.3415 18.2683 14.6074 16.8006L14.6073 16.7997L14.6461 16.5893L14.6514 16.5616C14.7809 15.9477 14.9713 15.3259 15.2304 14.715C15.3038 14.5404 15.3817 14.3656 15.4639 14.1941L15.4701 14.181L15.5797 13.9611L15.585 13.951C16.005 13.1297 16.5086 12.3826 17.0775 11.7381L17.0785 11.7371L17.2298 11.5668L17.2464 11.5483C17.6927 11.0693 18.1816 10.6508 18.7046 10.3113L18.7055 10.3112ZM22.8636 11.4729C21.9966 11.178 20.9933 11.2817 19.9936 11.8654L19.7938 11.9884C19.4255 12.2275 19.0635 12.5324 18.7203 12.899L18.5754 13.0612L18.5764 13.0621C18.1261 13.5722 17.7144 14.1779 17.3651 14.8611L17.2609 15.072C17.1969 15.206 17.1342 15.3468 17.0729 15.4927L17.0722 15.4966C16.8657 15.9834 16.7127 16.4808 16.6086 16.9744L16.5753 17.158C16.338 18.4684 16.3801 19.6587 16.7527 20.4521C17.1007 21.1928 17.6239 21.6573 18.2526 21.8699C18.6063 21.9894 18.9958 22.0323 19.4119 21.9894C19.9634 21.9325 20.7232 21.6248 21.422 21.1662L21.4239 21.1651C22.5598 20.4211 23.5434 19.2157 24.1586 17.7559L24.1585 17.755C24.9273 15.9342 24.9402 14.1175 24.3645 12.8906L24.3644 12.8896C24.0164 12.1497 23.4939 11.6852 22.8655 11.4728L22.8636 11.4729Z" fill="#00000E"/>
<path d="M20.0908 3.401C20.8348 3.32957 21.5845 3.35572 22.3213 3.4801L22.3262 3.48108L22.6338 3.53869H22.6377L22.6416 3.53967L22.6465 3.54065L22.6455 3.54162C23.1365 3.64877 23.7109 3.84549 24.2178 4.05627C24.7044 4.25866 25.15 4.48406 25.4102 4.66174C25.8848 4.91712 26.6419 5.50221 27.3692 6.26721C28.052 6.98552 28.7283 7.88304 29.126 8.84338L29.2022 9.03577L29.2031 9.0387L29.3047 9.32385L29.3057 9.32776C29.8044 10.8039 29.9946 12.4943 29.8731 14.236C29.7399 16.1524 29.2248 18.1464 28.3897 20.0084C27.0189 23.0655 24.8865 25.6107 22.3545 27.152C20.917 28.0273 19.7655 28.5031 18.2979 28.5875L18.2989 28.5885H18.291C18.29 28.5887 18.2883 28.5894 18.2871 28.5895C18.2795 28.5903 18.2681 28.592 18.2549 28.5934C18.228 28.5962 18.1906 28.6002 18.1514 28.6041C18.0758 28.6117 17.9803 28.6203 17.9317 28.6227C17.8544 28.6265 16.8489 28.6815 16.1543 28.5563C15.8349 28.4987 15.4548 28.3891 15.1612 28.2965C15.0131 28.2498 14.8839 28.207 14.792 28.1754C14.7462 28.1597 14.709 28.1463 14.6836 28.1373C14.6711 28.1329 14.661 28.129 14.6543 28.1266C14.6511 28.1254 14.6482 28.1243 14.6465 28.1237L14.6455 28.1227C14.477 28.0631 14.2637 27.9726 14.0967 27.8991C14.0123 27.8619 13.9371 27.8277 13.8838 27.8033C13.8574 27.7913 13.8351 27.7819 13.8203 27.775C13.8131 27.7717 13.8066 27.769 13.8028 27.7672L13.8008 27.7653L13.7989 27.7643H13.7969V27.7633C13.239 27.5126 12.7693 27.1664 12.17 26.7438L12.1651 26.7399L11.8252 26.4899L11.8203 26.485C11.0211 25.8606 10.3345 25.0941 9.79495 24.2213L9.78323 24.1998C8.98778 22.8767 8.78023 21.6726 8.6182 20.7135C8.26657 18.6287 8.52065 16.981 8.6846 15.9606L8.75199 15.5778C8.81228 15.2568 8.88362 14.9371 8.9639 14.6207L8.95413 14.6188L9.06839 14.2203L9.25491 13.525L9.27445 13.5348C9.51787 12.774 9.81059 12.0302 10.1494 11.3092V11.3073L10.1748 11.2545C10.1799 11.244 10.1842 11.2323 10.1895 11.2213L10.1817 11.2184L10.417 10.7516L10.6436 10.2838L10.6553 10.2887C11.0743 9.49892 11.5616 8.7497 12.1104 8.05041L12.0879 8.0387L12.5039 7.56702L12.8028 7.21057L12.8145 7.21643C13.5224 6.44424 14.5814 5.30419 16.3379 4.43713L16.3438 4.43518L16.7783 4.23205L16.7842 4.2301C17.8345 3.77088 18.9512 3.49106 20.0908 3.401ZM22.1524 5.8053H22.1455L22.1465 5.80627C20.035 5.92503 17.7038 7.18367 15.7559 9.36877L15.7549 9.36975L15.5938 9.54846L15.4639 9.70569L15.4629 9.70667C14.8088 10.4898 14.2314 11.34 13.7403 12.2438L13.6983 12.318L13.6992 12.319L13.4971 12.7106C13.3834 12.9317 13.2752 13.1572 13.1739 13.3864L13.1719 13.3903C12.8755 14.0503 12.6235 14.7328 12.418 15.4293L12.3545 15.6442L12.294 15.8756C11.6127 18.4678 11.6555 21.0194 12.4043 23.027C13.0324 24.7102 14.0925 25.8708 15.4336 26.4537L15.6016 26.5231C17.349 27.2084 19.4394 26.8791 21.4707 25.6364C23.5631 24.356 25.5214 22.1412 26.8037 19.2828C28.3142 15.9161 28.5625 12.3082 27.5713 9.64417C26.9436 7.96193 25.8854 6.80213 24.5449 6.21838C23.787 5.8944 22.9686 5.7528 22.1524 5.8053Z" fill="#00000E"/>
<path d="M7.31567 5.71571C7.25154 5.84508 7.30303 6.00198 7.43135 6.06819L18.1908 11.6199C18.4124 11.7343 18.6844 11.6669 18.827 11.4624C19.0036 11.2092 18.9094 10.8581 18.6299 10.7272L7.66475 5.59365C7.53455 5.5327 7.37951 5.58691 7.31567 5.71571Z" fill="#00000E"/>
<path d="M18.0984 11.798C18.409 11.9583 18.7907 11.8633 18.9907 11.5766C19.238 11.2217 19.1064 10.7295 18.7146 10.546L7.74932 5.41239C7.52067 5.30536 7.24813 5.40099 7.13601 5.62719C7.02356 5.85436 7.11419 6.12954 7.33948 6.24578L18.0984 11.798ZM7.49474 5.80502C7.51028 5.77368 7.54767 5.76029 7.57937 5.77503L18.5447 10.9086C18.7118 10.9869 18.768 11.197 18.6624 11.3484C18.577 11.4704 18.4147 11.5106 18.2823 11.4423L7.52299 5.89096C7.49179 5.87486 7.47929 5.83651 7.49474 5.80502Z" fill="#00000E"/>
<path d="M2.22662 6.56278C2.29581 6.438 2.45203 6.3914 2.57828 6.45788L17.9122 14.533C18.1426 14.6543 18.2253 14.9432 18.0941 15.1682C17.9687 15.3831 17.6944 15.4583 17.4769 15.3374L2.32861 6.9193C2.20205 6.84897 2.1564 6.6894 2.22662 6.56278Z" fill="#00000E"/>
<path d="M18.005 14.3563C18.3361 14.5307 18.4554 14.9465 18.2668 15.2697C18.0864 15.5784 17.692 15.6862 17.3795 15.5125L2.23155 7.09403C2.00863 6.97005 1.92789 6.68918 2.05158 6.46607C2.17345 6.24628 2.44858 6.16447 2.671 6.28136L18.005 14.3563ZM2.40174 6.66023C2.38509 6.69031 2.39603 6.7285 2.42609 6.7452L17.5745 15.1628C17.6968 15.2306 17.8502 15.1885 17.9209 15.0679C17.9947 14.9413 17.9486 14.7782 17.819 14.7099L2.485 6.63493C2.45504 6.61929 2.41815 6.63065 2.40174 6.66023Z" fill="#00000E"/>
<path d="M4.01565 11.1847C4.09469 11.0688 4.25059 11.0349 4.37061 11.1075L15.346 17.7522C15.5651 17.8849 15.6488 18.1615 15.5399 18.3934C15.4104 18.6693 15.0664 18.7665 14.8117 18.5991L4.08883 11.5542C3.96546 11.4731 3.93248 11.3066 4.01565 11.1847Z" fill="#00000E"/>
<path d="M3.8501 11.0725C3.989 10.8687 4.2632 10.809 4.47412 10.9367L15.4487 17.5812C15.7554 17.7669 15.8725 18.1542 15.7202 18.4787C15.5389 18.8645 15.0581 19.0006 14.7017 18.7668L3.979 11.7219C3.76222 11.5794 3.70403 11.2868 3.8501 11.0725ZM4.26611 11.2785C4.23712 11.2613 4.1993 11.2692 4.18017 11.2971C4.16009 11.3265 4.16816 11.3671 4.19775 11.3869L14.9214 18.4318C15.0743 18.5322 15.28 18.4742 15.3579 18.3088C15.4233 18.1695 15.3733 18.0027 15.2417 17.923L4.26611 11.2785Z" fill="#00000E"/>
<path d="M20.3247 20.8331L20.6969 21.0423C21.1914 21.3202 21.3073 21.9815 20.9367 22.411L20.891 22.4639C20.8653 22.4937 20.8354 22.5197 20.8023 22.5411L20.4258 22.7839C20.1908 22.9354 20.2704 23.2998 20.55 23.2998C20.6096 23.2998 20.6958 23.2805 20.7439 23.2452C22.2448 22.1456 23.1798 21.4802 24.3978 20.4403C25.2952 19.6741 26.2934 16.7426 26.3675 14.8391C26.3816 14.4769 26.3564 14.1581 26.3079 13.8805C26.1947 13.2331 25.5947 13.0565 25.5283 13.7103C25.4767 14.2193 24.8735 14.8078 24.4275 14.5572L22.8805 13.6876C22.5021 13.475 22.023 13.6093 21.8104 13.9876C21.5977 14.366 21.7321 14.8451 22.1104 15.0577L22.8091 15.4505C23.1496 15.6418 23.2705 16.073 23.0791 16.4135C22.8878 16.754 22.4566 16.8749 22.1161 16.6835L20.9104 16.0059C20.4942 15.7719 19.9672 15.9197 19.7333 16.3359C19.4994 16.752 19.6471 17.279 20.0633 17.513L22.5021 18.8837C22.782 19.0411 22.8814 19.3956 22.7241 19.6755C22.5667 19.9555 22.2122 20.0549 21.9322 19.8976L21.1102 19.4355C20.7243 19.2186 20.2356 19.3556 20.0187 19.7415C19.8018 20.1275 19.9388 20.6161 20.3247 20.8331Z" fill="#00000E"/>
</svg>
