<svg width="32" height="32" viewBox="0 0 32 32" fill="none" xmlns="http://www.w3.org/2000/svg">
<path d="M8.24 16L5 19.2391V22H26.6V19.2391L23.63 16" fill="#BBFD3B"/>
<path d="M7.5332 15.293C7.92378 14.9026 8.5568 14.9025 8.94727 15.293C9.33765 15.6836 9.33762 16.3166 8.94727 16.7071L6 19.6534V21.0001H25.5996V19.627L22.8926 16.6759C22.5195 16.2688 22.5471 15.636 22.9541 15.2628C23.3612 14.8896 23.994 14.9173 24.3672 15.3243L27.3369 18.5636C27.506 18.748 27.5996 18.9891 27.5996 19.2393V22.0001C27.5996 22.5524 27.1519 23.0001 26.5996 23.0001H5C4.44772 23.0001 4 22.5524 4 22.0001V19.2393C4 18.9741 4.10547 18.7198 4.29297 18.5323L7.5332 15.293Z" fill="#00000E"/>
<path d="M14.2723 4.88774L15.0466 4.30697C15.5924 3.89768 16.3033 3.89768 16.849 4.30697L17.6234 4.88774C20.6366 7.14763 22.4465 10.9521 22.4465 15.0262V21.2992H9.44922V15.0262C9.44922 10.9521 11.2591 7.14763 14.2723 4.88774Z" fill="white"/>
<path d="M21.4463 15.0265C21.4463 11.2374 19.7619 7.74147 17.0234 5.68763L16.249 5.10755C16.0589 4.96493 15.8366 4.96493 15.6465 5.10755L14.8721 5.68763C12.1336 7.74147 10.4492 11.2374 10.4492 15.0265V20.299H21.4463V15.0265ZM23.4463 21.299C23.4463 21.8512 22.9986 22.299 22.4463 22.299H9.44922C8.89693 22.299 8.44922 21.8512 8.44922 21.299V15.0265C8.44922 10.6676 10.3841 6.55399 13.6719 4.08802L14.4463 3.50697C15.3476 2.83101 16.5479 2.83101 17.4492 3.50697L18.2236 4.08802C21.5114 6.55398 23.4463 10.6676 23.4463 15.0265V21.299Z" fill="#00000E"/>
<path d="M15.3252 10H16.4443C16.9966 10 17.4443 10.4477 17.4443 11C17.4443 11.5523 16.9966 12 16.4443 12H15.3252C14.7729 12 14.3252 11.5523 14.3252 11C14.3252 10.4477 14.7729 10 15.3252 10Z" fill="#00000E"/>
<path d="M14.9482 28V24.3447C14.9482 23.7924 15.396 23.3447 15.9482 23.3447C16.5005 23.3447 16.9482 23.7924 16.9482 24.3447V28C16.9482 28.5523 16.5005 29 15.9482 29C15.396 29 14.9482 28.5523 14.9482 28Z" fill="#00000E"/>
<path d="M10.6162 26.7827V25.564C10.6162 25.0117 11.0639 24.564 11.6162 24.564C12.1685 24.564 12.6162 25.0117 12.6162 25.564V26.7827C12.6161 27.3349 12.1684 27.7827 11.6162 27.7827C11.064 27.7827 10.6164 27.3349 10.6162 26.7827Z" fill="#00000E"/>
<path d="M19.2793 26.7827V25.564C19.2793 25.0117 19.727 24.564 20.2793 24.564C20.8316 24.564 21.2793 25.0117 21.2793 25.564V26.7827C21.2792 27.3349 20.8315 27.7827 20.2793 27.7827C19.7271 27.7827 19.2794 27.3349 19.2793 26.7827Z" fill="#00000E"/>
<path d="M13 15C13 13.8954 13.8954 13 15 13H17C18.1046 13 19 13.8954 19 15V21H13V15Z" fill="#00000E"/>
<path d="M15 16C15 15.4477 15.4477 15 16 15V15C16.5523 15 17 15.4477 17 16V20H15V16Z" fill="#BBFD3B"/>
</svg>
