<svg width="22" height="23" viewBox="0 0 22 23" fill="none" xmlns="http://www.w3.org/2000/svg">
<path d="M20 7.5C20 8.32843 19.2428 8.97177 18.6368 9.53657C18.245 9.90168 18 10.4222 18 11V15C18 17.8284 17.9998 19.2424 17.1211 20.1211C16.2424 20.9998 14.8284 21 12 21H10C7.17157 21 5.75759 20.9998 4.87891 20.1211C4.00023 19.2424 4 17.8284 4 15V11C4 10.4222 3.755 9.90168 3.36323 9.53657C2.75719 8.97177 2 8.32843 2 7.5C2 6.67157 2.67157 6 3.5 6H18.5C19.3284 6 20 6.67157 20 7.5ZM8.5 10C7.94772 10 7.5 10.4477 7.5 11V16C7.5 16.5523 7.94772 17 8.5 17C9.05228 17 9.5 16.5523 9.5 16V11C9.5 10.4477 9.05228 10 8.5 10ZM13.5 10C12.9477 10 12.5 10.4477 12.5 11V16C12.5 16.5523 12.9477 17 13.5 17C14.0523 17 14.5 16.5523 14.5 16V11C14.5 10.4477 14.0523 10 13.5 10Z" fill="white"/>
<path d="M2 15V11C1.75923 10.7756 1.26994 10.3439 0.885742 9.8584C0.485092 9.35203 0 8.55182 0 7.5C0 5.567 1.567 4 3.5 4V6C2.67157 6 2 6.67157 2 7.5C2 8.32834 2.75727 8.97138 3.36328 9.53613C3.75505 9.90124 4 10.4222 4 11V15C4 17.8284 4.00023 19.2424 4.87891 20.1211C5.75759 20.9998 7.17157 21 10 21H12C14.8284 21 16.2424 20.9998 17.1211 20.1211C17.9998 19.2424 18 17.8284 18 15V11C18 10.4222 18.2449 9.90124 18.6367 9.53613C19.2427 8.97138 20 8.32834 20 7.5C20 6.67157 19.3284 6 18.5 6V4C20.433 4 22 5.567 22 7.5C22 8.55182 21.5149 9.35203 21.1143 9.8584C20.922 10.1014 20.7034 10.3306 20.5029 10.5273L20 11V15C20 16.3578 20.0041 17.5774 19.8721 18.5586C19.7323 19.5973 19.4078 20.6625 18.5352 21.5352C17.6625 22.4078 16.5973 22.7323 15.5586 22.8721C14.5774 23.0041 13.3578 23 12 23H10C8.64225 23 7.4226 23.0041 6.44141 22.8721C5.40272 22.7323 4.33754 22.4078 3.46484 21.5352C2.59215 20.6625 2.26769 19.5973 2.12793 18.5586C1.99593 17.5774 2 16.3578 2 15ZM14.5 16C14.5 16.5523 14.0523 17 13.5 17C12.9477 17 12.5 16.5523 12.5 16V11C12.5 10.4477 12.9477 10 13.5 10C14.0523 10 14.5 10.4477 14.5 11V16ZM9.5 16C9.5 16.5523 9.05228 17 8.5 17C7.94772 17 7.5 16.5523 7.5 16V11C7.5 10.4477 7.94772 10 8.5 10C9.05228 10 9.5 10.4477 9.5 11V16ZM18.5 4V6H3.5V4H18.5Z" fill="white"/>
<path d="M2 16C2 16 8.09526 15.6678 11.5 14C15.5937 11.9947 18.5 10 18.5 10L19.5 12C19.0403 12.4597 18.8105 12.6895 18.6666 12.9722C18.6382 13.028 18.6124 13.0851 18.5894 13.1433C18.4726 13.4382 18.4523 13.7626 18.4118 14.4115L18.3516 15.3743C18.185 18.0401 18.1017 19.373 17.2357 20.1865C16.3698 21 15.0343 21 12.3633 21H5.2C4.53726 21 4 20.4627 4 19.8C4 19.3582 3.64183 19 3.2 19H3L2 16Z" fill="#FA541C"/>
<path d="M2 15V11C1.75923 10.7756 1.26994 10.3439 0.885742 9.8584C0.485092 9.35203 0 8.55182 0 7.5C0 5.567 1.567 4 3.5 4V6C2.67157 6 2 6.67157 2 7.5C2 8.32834 2.75727 8.97138 3.36328 9.53613C3.75505 9.90124 4 10.4222 4 11V15C4 17.8284 4.00023 19.2424 4.87891 20.1211C5.75759 20.9998 7.17157 21 10 21H12C14.8284 21 16.2424 20.9998 17.1211 20.1211C17.9998 19.2424 18 17.8284 18 15V11C18 10.4222 18.2449 9.90124 18.6367 9.53613C19.2427 8.97138 20 8.32834 20 7.5C20 6.67157 19.3284 6 18.5 6V4C20.433 4 22 5.567 22 7.5C22 8.55182 21.5149 9.35203 21.1143 9.8584C20.922 10.1014 20.7034 10.3306 20.5029 10.5273L20 11V15C20 16.3578 20.0041 17.5774 19.8721 18.5586C19.7323 19.5973 19.4078 20.6625 18.5352 21.5352C17.6625 22.4078 16.5973 22.7323 15.5586 22.8721C14.5774 23.0041 13.3578 23 12 23H10C8.64225 23 7.4226 23.0041 6.44141 22.8721C5.40272 22.7323 4.33754 22.4078 3.46484 21.5352C2.59215 20.6625 2.26769 19.5973 2.12793 18.5586C1.99593 17.5774 2 16.3578 2 15ZM14.5 16C14.5 16.5523 14.0523 17 13.5 17C12.9477 17 12.5 16.5523 12.5 16V11C12.5 10.4477 12.9477 10 13.5 10C14.0523 10 14.5 10.4477 14.5 11V16ZM9.5 16C9.5 16.5523 9.05228 17 8.5 17C7.94772 17 7.5 16.5523 7.5 16V11C7.5 10.4477 7.94772 10 8.5 10C9.05228 10 9.5 10.4477 9.5 11V16ZM18.5 4V6H3.5V4H18.5Z" fill="black"/>
<path d="M10.9999 0C10.7633 0 10.2824 0.00956357 9.81825 0.0273438C9.39328 0.0436252 8.86005 0.069989 8.59364 0.121094C8.38175 0.161745 8.17417 0.214841 7.98622 0.285156C7.85821 0.333051 7.69552 0.405324 7.53896 0.515625L7.38563 0.639648L7.31435 0.712891C6.98058 1.09433 6.98359 1.67416 7.33681 2.05273C7.69209 2.43347 8.2747 2.47454 8.6786 2.16211C8.68119 2.1611 8.68426 2.16035 8.68739 2.15918C8.74077 2.13922 8.83332 2.1113 8.9706 2.08496C8.97251 2.08464 8.99911 2.08041 9.06044 2.07422C9.11897 2.06831 9.19315 2.06259 9.28114 2.05664C9.45759 2.04472 9.67266 2.03392 9.8954 2.02539C10.3425 2.00827 10.7962 2 10.9999 2C11.2037 2.00001 11.6573 2.00827 12.1044 2.02539C12.327 2.03392 12.5413 2.04473 12.7177 2.05664C12.806 2.06261 12.8807 2.06829 12.9393 2.07422C13.0031 2.08065 13.0292 2.08497 13.0292 2.08496C13.1664 2.11129 13.2591 2.13923 13.3124 2.15918C13.3159 2.16049 13.3193 2.161 13.3222 2.16211C13.726 2.47381 14.308 2.43324 14.663 2.05273C15.0395 1.64903 15.0176 1.0164 14.6142 0.639648L14.4608 0.515625C14.3042 0.405211 14.1407 0.33308 14.0126 0.285156C13.8247 0.214921 13.6169 0.161712 13.4052 0.121094C13.1386 0.0700336 12.6053 0.0436152 12.1806 0.0273438C11.7166 0.00957582 11.2365 5.64352e-06 10.9999 0Z" fill="#00000E"/>
</svg>
