<svg width="32" height="32" viewBox="0 0 32 32" fill="none" xmlns="http://www.w3.org/2000/svg">
<path d="M16.222 4.46631C10.708 4.46631 8.43784 10.1921 8.30604 13.2345C8.29874 13.4029 8.39865 13.5577 8.55179 13.6282C15.3632 16.7665 21.212 14.8343 23.7515 13.6284C23.9016 13.5572 23.9963 13.4055 23.9899 13.2395C23.8708 10.1462 21.7422 4.46631 16.222 4.46631Z" fill="white"/>
<path d="M8.80176 20.54C8.80176 21.0923 8.35404 21.54 7.80176 21.54C7.24947 21.54 6.80176 21.0923 6.80176 20.54C6.80176 19.9878 7.24947 19.54 7.80176 19.54C8.35404 19.54 8.80176 19.9878 8.80176 20.54Z" fill="white"/>
<path d="M8.80176 20.54C8.80176 19.9878 8.35404 19.54 7.80176 19.54C7.24947 19.54 6.80176 19.9878 6.80176 20.54C6.80176 21.0923 7.24947 21.54 7.80176 21.54C8.35404 21.54 8.80176 21.0923 8.80176 20.54ZM10.8018 20.54C10.8018 22.1969 9.45861 23.54 7.80176 23.54C6.1449 23.54 4.80176 22.1969 4.80176 20.54C4.80176 18.8832 6.1449 17.54 7.80176 17.54C9.45861 17.54 10.8018 18.8832 10.8018 20.54Z" fill="#00000E"/>
<path d="M25.8018 20.54C25.8018 21.0923 25.354 21.54 24.8018 21.54C24.2495 21.54 23.8018 21.0923 23.8018 20.54C23.8018 19.9878 24.2495 19.54 24.8018 19.54C25.354 19.54 25.8018 19.9878 25.8018 20.54Z" fill="white"/>
<path d="M25.8018 20.54C25.8018 19.9878 25.354 19.54 24.8018 19.54C24.2495 19.54 23.8018 19.9878 23.8018 20.54C23.8018 21.0923 24.2495 21.54 24.8018 21.54C25.354 21.54 25.8018 21.0923 25.8018 20.54ZM27.8018 20.54C27.8018 22.1969 26.4586 23.54 24.8018 23.54C23.1449 23.54 21.8018 22.1969 21.8018 20.54C21.8018 18.8832 23.1449 17.54 24.8018 17.54C26.4586 17.54 27.8018 18.8832 27.8018 20.54Z" fill="#00000E"/>
<path d="M17.1572 21.54C17.1572 22.0923 16.7095 22.54 16.1572 22.54C15.6049 22.54 15.1572 22.0923 15.1572 21.54C15.1572 20.9878 15.6049 20.54 16.1572 20.54C16.7095 20.54 17.1572 20.9878 17.1572 21.54Z" fill="white"/>
<path d="M17.1572 21.54C17.1572 20.9878 16.7095 20.54 16.1572 20.54C15.6049 20.54 15.1572 20.9878 15.1572 21.54C15.1572 22.0923 15.6049 22.54 16.1572 22.54C16.7095 22.54 17.1572 22.0923 17.1572 21.54ZM19.1572 21.54C19.1572 23.1969 17.8141 24.54 16.1572 24.54C14.5004 24.54 13.1572 23.1969 13.1572 21.54C13.1572 19.8832 14.5004 18.54 16.1572 18.54C17.8141 18.54 19.1572 19.8832 19.1572 21.54Z" fill="#00000E"/>
<path d="M16 20.4907C22.6274 20.4907 28 18.5715 28 16.204C28 14.6173 25.5868 13.2319 22 12.4907H10C6.41319 13.2319 4 14.6173 4 16.204C4 18.5715 9.37258 20.4907 16 20.4907Z" fill="#BBFD3B"/>
<path d="M27 16.2036C26.9998 15.9534 26.794 15.4712 25.8271 14.8853C24.9246 14.3383 23.5773 13.847 21.8896 13.4907H10.1104C8.42269 13.847 7.07541 14.3383 6.17285 14.8853C5.206 15.4712 5.0002 15.9534 5 16.2036C5 16.3871 5.10099 16.6976 5.58789 17.1089C6.07024 17.5163 6.82831 17.9279 7.85156 18.2935C9.88935 19.0213 12.7701 19.4907 16 19.4907C19.2299 19.4907 22.1107 19.0213 24.1484 18.2935C25.1717 17.9279 25.9298 17.5163 26.4121 17.1089C26.899 16.6976 27 16.3871 27 16.2036ZM29 16.2036C29 17.2038 28.4296 18.0218 27.7021 18.6362C26.97 19.2546 25.9696 19.767 24.8213 20.1772C22.516 21.0007 19.3971 21.4907 16 21.4907C12.6029 21.4907 9.484 21.0007 7.17871 20.1772C6.03039 19.767 5.02997 19.2546 4.29785 18.6362C3.57041 18.0218 3 17.2038 3 16.2036C3.00019 14.8672 4.00103 13.8636 5.13672 13.1753C6.32106 12.4576 7.94195 11.8947 9.79785 11.5112L9.89844 11.4956C9.93215 11.4922 9.96607 11.4907 10 11.4907H22C22.0679 11.4907 22.1357 11.4975 22.2021 11.5112C24.0581 11.8947 25.6789 12.4576 26.8633 13.1753C27.999 13.8636 28.9998 14.8672 29 16.2036Z" fill="#00000E"/>
<path d="M15.9654 4.896C11.1373 4.896 9.13802 9.88999 9.00731 12.5735C8.9991 12.7419 9.09894 12.8963 9.25219 12.9666C15.2021 15.6949 20.3124 14.0258 22.5565 12.9664C22.7067 12.8955 22.8006 12.744 22.7934 12.578C22.675 9.85078 20.7992 4.896 15.9654 4.896Z" fill="white"/>
<path d="M16.1078 3.46631C19.2708 3.46631 21.4641 5.1158 22.8422 7.12842C24.198 9.10866 24.8094 11.489 24.8754 13.2007C24.8976 13.7784 24.567 14.2941 24.0668 14.5317C21.3838 15.8057 15.2035 17.8468 8.01892 14.5366C7.51847 14.3059 7.16689 13.7878 7.19274 13.1909L7.21325 12.8647C7.35109 11.197 8.00991 8.98964 9.31384 7.13428C10.7253 5.12605 12.9485 3.4664 16.1078 3.46631ZM16.1078 5.46631C13.7534 5.4664 12.0846 6.66966 10.9496 8.28467C9.90316 9.77374 9.35799 11.5583 9.22106 12.8804C15.2017 15.484 20.3411 13.9989 22.849 12.8872C22.7237 11.5357 22.2091 9.74286 21.1927 8.2583C20.0967 6.65765 18.465 5.46631 16.1078 5.46631Z" fill="#00000E"/>
<path d="M13.2657 14.4413C12.9881 14.0117 13.0468 13.7365 13.1643 13.1862C13.4901 11.6595 14.6863 10.4297 16.1575 10.4297C17.6288 10.4297 18.825 11.6595 19.1508 13.1862C19.2683 13.7365 19.327 14.0117 19.0494 14.4413C18.2924 15.6132 13.8774 15.3884 13.2657 14.4413Z" fill="#00000E"/>
<path d="M14.447 14.5844C14.3249 14.3955 14.3508 14.2745 14.4024 14.0325C14.5457 13.3611 15.0717 12.8203 15.7187 12.8203C16.3656 12.8203 16.8916 13.3611 17.0349 14.0325C17.0866 14.2745 17.1124 14.3955 16.9903 14.5844C16.6574 15.0997 14.716 15.0008 14.447 14.5844Z" fill="#BBFD3B"/>
<path d="M17.1561 26.3561C17.5584 26.0377 18.1441 26.0737 18.5028 26.4538C18.8817 26.8555 18.8634 27.4889 18.4617 27.8678C18.2522 28.0655 18.0017 28.1771 17.8221 28.2428C17.6246 28.3151 17.4093 28.3681 17.1981 28.4079C16.7744 28.4876 16.2851 28.528 15.8094 28.5329C15.3342 28.5378 14.836 28.5074 14.3973 28.4294C14.1781 28.3904 13.9524 28.3365 13.743 28.2585C13.5461 28.1851 13.2935 28.0649 13.0809 27.86C12.6836 27.4768 12.6724 26.8435 13.0555 26.446C13.4213 26.0668 14.013 26.0405 14.4119 26.3718C14.4188 26.3748 14.4289 26.3795 14.4422 26.3844C14.5047 26.4077 14.6056 26.4353 14.7479 26.4606C15.0327 26.5113 15.4015 26.5369 15.7889 26.5329C16.1756 26.5289 16.545 26.4955 16.8289 26.4421C16.9712 26.4153 17.0721 26.3868 17.1346 26.3639C17.143 26.3608 17.1503 26.3585 17.1561 26.3561Z" fill="#00000E"/>
</svg>
