<svg width="24" height="24" viewBox="0 0 24 24" fill="none" xmlns="http://www.w3.org/2000/svg">
<path d="M1.43945 11.9999C1.43945 13.3867 1.7126 14.7599 2.24329 16.0411C2.77397 17.3223 3.55182 18.4864 4.5324 19.467C5.51299 20.4476 6.67712 21.2254 7.95832 21.7561C9.23951 22.2868 10.6127 22.5599 11.9995 22.5599C13.3862 22.5599 14.7594 22.2868 16.0406 21.7561C17.3218 21.2254 18.4859 20.4476 19.4665 19.467C20.4471 18.4864 21.2249 17.3223 21.7556 16.0411C22.2863 14.7599 22.5595 13.3867 22.5595 11.9999C22.5595 9.19925 21.4469 6.51328 19.4665 4.53289C17.4861 2.55251 14.8001 1.43994 11.9995 1.43994C9.19877 1.43994 6.51279 2.55251 4.53241 4.53289C2.55202 6.51328 1.43945 9.19925 1.43945 11.9999Z" fill="white"/>
<path d="M20.5595 11.9995C20.5593 9.72939 19.6578 7.55195 18.0526 5.94675C16.4473 4.34145 14.2692 3.43993 11.999 3.43993C9.72888 3.44004 7.55147 4.34155 5.94626 5.94675C4.34106 7.55195 3.43956 9.72937 3.43944 11.9995C3.43944 13.1236 3.66063 14.2373 4.09081 15.2758C4.52098 16.3143 5.15142 17.2583 5.94626 18.0531C6.74112 18.848 7.68508 19.4784 8.72359 19.9086C9.76198 20.3387 10.875 20.5599 11.999 20.56V22.5599L11.4804 22.5472C10.4438 22.4962 9.42052 22.2923 8.44332 21.9428L7.95797 21.7562C6.83682 21.2918 5.80548 20.6378 4.90818 19.8246L4.53221 19.4672C3.67428 18.6093 2.97189 17.6104 2.4541 16.516L2.24316 16.0414C1.71247 14.7602 1.43945 13.3862 1.43945 11.9995C1.43957 9.19894 2.55194 6.51297 4.53221 4.5327C6.51248 2.55243 9.19845 1.44005 11.999 1.43994C14.7996 1.43994 17.4863 2.55232 19.4667 4.5327C21.4469 6.51296 22.5593 9.19896 22.5595 11.9995L22.5468 12.519C22.4872 13.7284 22.2201 14.9203 21.7557 16.0414L21.5448 16.516C21.027 17.6105 20.3246 18.6092 19.4667 19.4672L19.0897 19.8246C18.1926 20.6376 17.1618 21.2919 16.0409 21.7562L15.5556 21.9428C14.4156 22.3505 13.2123 22.5599 11.999 22.5599V20.56C13.1231 20.56 14.2368 20.3388 15.2753 19.9086C16.3138 19.4784 17.2578 18.848 18.0526 18.0531C18.8475 17.2583 19.4779 16.3143 19.9081 15.2758C20.3383 14.2373 20.5595 13.1236 20.5595 11.9995Z" fill="white"/>
<path d="M5.5 16.5002C5.5 16.5002 1.71268 14.76 2.24336 16.0412C2.77405 17.3224 3.5519 18.4865 4.53248 19.4671C5.51307 20.4477 6.6772 21.2255 7.95839 21.7562C9.23959 22.2869 10.6128 22.56 11.9995 22.56C13.3863 22.56 14.7595 22.2869 16.0407 21.7562C17.3219 21.2255 18.486 20.4477 19.4666 19.4671C20.4472 18.4865 21.225 17.3224 21.7557 16.0412C22.2864 14.76 22.5595 13.3868 22.5595 12C22.5595 9.19932 21 11 21 11C21 11 18.6959 12.3262 18.0001 13C15.7166 15.2113 13.0066 13.4683 10.0001 14.5001C8.18105 15.1243 5.5 16.5002 5.5 16.5002Z" fill="#BBFD3B"/>
<path d="M20.5595 11.9995C20.5593 9.72939 19.6578 7.55195 18.0526 5.94675C16.4473 4.34145 14.2692 3.43993 11.999 3.43993C9.72888 3.44004 7.55147 4.34155 5.94626 5.94675C4.34106 7.55195 3.43956 9.72937 3.43944 11.9995C3.43944 13.1236 3.66063 14.2373 4.09081 15.2758C4.52098 16.3143 5.15142 17.2583 5.94626 18.0531C6.74112 18.848 7.68508 19.4784 8.72359 19.9086C9.76198 20.3387 10.875 20.5599 11.999 20.56V22.5599L11.4804 22.5472C10.4438 22.4962 9.42052 22.2923 8.44332 21.9428L7.95797 21.7562C6.83682 21.2918 5.80548 20.6378 4.90818 19.8246L4.53221 19.4672C3.67428 18.6093 2.97189 17.6104 2.4541 16.516L2.24316 16.0414C1.71247 14.7602 1.43945 13.3862 1.43945 11.9995C1.43957 9.19894 2.55194 6.51297 4.53221 4.5327C6.51248 2.55243 9.19845 1.44005 11.999 1.43994C14.7996 1.43994 17.4863 2.55232 19.4667 4.5327C21.4469 6.51296 22.5593 9.19896 22.5595 11.9995L22.5468 12.519C22.4872 13.7284 22.2201 14.9203 21.7557 16.0414L21.5448 16.516C21.027 17.6105 20.3246 18.6092 19.4667 19.4672L19.0897 19.8246C18.1926 20.6376 17.1618 21.2919 16.0409 21.7562L15.5556 21.9428C14.4156 22.3505 13.2123 22.5599 11.999 22.5599V20.56C13.1231 20.56 14.2368 20.3388 15.2753 19.9086C16.3138 19.4784 17.2578 18.848 18.0526 18.0531C18.8475 17.2583 19.4779 16.3143 19.9081 15.2758C20.3383 14.2373 20.5595 13.1236 20.5595 11.9995Z" fill="black"/>
<path d="M6.7773 11.453L17.4411 11.453C17.752 11.453 18.0318 11.2487 18.1562 10.9202C18.2805 10.5961 18.2261 10.2231 18.0201 9.9612L14.8225 6.28945C14.531 5.92539 14.0414 5.90319 13.7227 6.23173C13.4078 6.56471 13.3845 7.12412 13.6721 7.48818L15.6843 9.67706L6.7773 9.67706C6.57115 9.67706 6.37344 9.77061 6.22767 9.93713C6.08189 10.1037 6 10.3295 6 10.565C6 10.8005 6.08189 11.0264 6.22767 11.1929C6.37344 11.3594 6.57115 11.453 6.7773 11.453Z" fill="#00000E"/>
<path d="M13.6572 6.01962C14.0579 5.68408 14.6289 5.73604 14.9727 6.15829L18.1709 9.83017L18.1777 9.83798C18.4285 10.1572 18.4914 10.6049 18.3428 10.9923C18.1927 11.3875 17.8454 11.6533 17.4414 11.6534L6.77734 11.6534C6.50891 11.6534 6.25774 11.5306 6.07715 11.3243C5.89752 11.119 5.79989 10.8458 5.7998 10.5655C5.7998 10.285 5.89738 10.0112 6.07715 9.80575C6.25774 9.59946 6.50891 9.47763 6.77734 9.47763L15.2295 9.47763L13.5244 7.62411L13.5195 7.61825L13.5156 7.61239C13.1673 7.17152 13.1934 6.50092 13.5771 6.09482L13.5791 6.09286L13.6572 6.01962ZM6.2002 10.5655C6.20029 10.7558 6.26631 10.9341 6.37793 11.0616C6.48887 11.1883 6.63351 11.253 6.77734 11.253L17.4414 11.253C17.6585 11.2529 17.8699 11.1104 17.9688 10.8497L17.9697 10.8487C18.0691 10.5898 18.0246 10.2935 17.8662 10.089L14.6719 6.42099L14.666 6.41513C14.4491 6.14422 14.1003 6.1299 13.8662 6.37118C13.6233 6.63013 13.6031 7.07382 13.8262 7.36044L16.1396 9.87704L6.77734 9.87704C6.63347 9.87704 6.48888 9.94268 6.37793 10.0694C6.26641 10.197 6.2002 10.3753 6.2002 10.5655Z" fill="#00000E"/>
<path d="M17.4454 12.7321L6.7816 12.7321C6.47068 12.7321 6.19085 12.9363 6.06648 13.2649C5.94212 13.589 5.99653 13.9619 6.20251 14.2239L9.40012 17.8956C9.69161 18.2597 10.1813 18.2819 10.5 17.9533C10.8148 17.6203 10.8381 17.0609 10.5505 16.6969L8.53831 14.508L17.4454 14.508C17.6515 14.508 17.8492 14.4144 17.995 14.2479C18.1408 14.0814 18.2227 13.8555 18.2227 13.62C18.2227 13.3845 18.1408 13.1587 17.995 12.9922C17.8492 12.8256 17.6515 12.7321 17.4454 12.7321Z" fill="#00000E"/>
<path d="M10.5654 18.1654C10.1647 18.501 9.59374 18.449 9.25 18.0268L6.05176 14.3549L6.04492 14.3471C5.79413 14.0279 5.73122 13.5802 5.87988 13.1928C6.03 12.7975 6.37727 12.5318 6.78125 12.5316L17.4453 12.5316C17.7137 12.5316 17.9649 12.6545 18.1455 12.8608C18.3251 13.0661 18.4228 13.3392 18.4229 13.6195C18.4229 13.9001 18.3253 14.1739 18.1455 14.3793C17.9649 14.5856 17.7137 14.7074 17.4453 14.7074L8.99316 14.7074L10.6982 16.5609L10.7031 16.5668L10.707 16.5727C11.0553 17.0135 11.0293 17.6841 10.6455 18.0902L10.6436 18.0922L10.5654 18.1654ZM18.0225 13.6195C18.0224 13.4293 17.9563 13.251 17.8447 13.1234C17.7338 12.9968 17.5891 12.932 17.4453 12.932L6.78125 12.932C6.56414 12.9322 6.35272 13.0747 6.25391 13.3354L6.25293 13.3363C6.15358 13.5952 6.19807 13.8916 6.35645 14.0961L9.55078 17.7641L9.55664 17.7699C9.77355 18.0408 10.1223 18.0552 10.3564 17.8139C10.5994 17.5549 10.6196 17.1112 10.3965 16.8246L8.08301 14.308L17.4453 14.308C17.5892 14.308 17.7338 14.2424 17.8447 14.1156C17.9562 13.9881 18.0225 13.8098 18.0225 13.6195Z" fill="#00000E"/>
</svg>
